<svg xmlns="http://www.w3.org/2000/svg" viewBox="0 0 920 413">
  <g fill="none" fill-rule="evenodd">
    <path fill="#BA0E37" d="M958.61753,1.05976096 C957.087649,11.3864542 954.027888,21.3306773 950.968127,30.8924303 C929.932271,32.0398406 908.896414,29.7450199 888.243028,33.187251 C886.330677,40.8366534 884.418327,48.8685259 882.888446,56.5179283 C888.625498,56.5179283 894.36255,56.9003984 900.099602,57.2828685 C903.541833,69.5219124 885.948207,63.7848606 879.446215,67.6095618 C873.709163,76.0239044 872.944223,86.3505976 870.649402,96.2948207 C880.976096,93.2350598 890.537849,89.0278884 900.864542,86.3505976 C900.482072,88.2629482 898.952191,92.4701195 898.187251,94.3824701 C877.151394,105.091633 853.438247,112.358566 829.7251,111.211155 C828.195219,104.326693 827.812749,97.059761 827.812749,89.7928287 C801.804781,98.5896414 775.796813,109.298805 748.641434,113.505976 C742.139442,115.035857 736.01992,113.123506 730.282869,111.976096 C730.282869,103.179283 731.047809,94.7649402 732.195219,86.3505976 C724.163347,94.3824701 716.896414,103.179283 708.099602,110.446215 C695.478088,115.800797 681.709163,113.123506 668.322709,113.123506 C669.087649,105.091633 670.61753,97.059761 671.76494,89.0278884 C648.051793,98.5896414 624.721116,110.063745 599.478088,114.270916 C591.063745,116.948207 584.944223,110.446215 579.589641,105.091633 C564.673307,109.298805 549.756972,115.035857 534.075697,114.270916 C524.131474,104.326693 536.370518,89.7928287 536.752988,77.5537849 C525.661355,77.5537849 514.952191,76.7888446 504.243028,77.5537849 C495.828685,80.2310757 496.593625,90.5577689 492.386454,97.059761 C485.884462,111.593625 468.290837,114.270916 454.139442,114.270916 C437.693227,113.888446 421.247012,115.418327 405.183267,113.505976 C397.916335,110.063745 398.681275,101.649402 397.533865,94.7649402 C374.203187,103.179283 351.63745,118.095618 326.394422,114.653386 C322.952191,111.976096 319.50996,109.298805 316.067729,106.621514 L314.411215,107.146718 C298.110032,112.294324 281.451048,116.872967 264.434263,114.653386 C263.669323,104.326693 265.964143,94.3824701 268.641434,84.438247 C245.693227,85.2031873 223.50996,94.3824701 200.561753,92.0876494 C200.179283,86.7330677 199.796813,80.9960159 199.414343,75.6414343 C185.645418,83.6733068 185.262948,100.884462 179.143426,114.270916 C166.521912,114.653386 153.517928,114.653386 140.513944,113.888446 C143.573705,102.031873 147.398406,90.5577689 150.075697,78.3187251 C119.478088,94.3824701 89.6454183,119.243028 53.310757,115.035857 C45.6613546,115.418327 40.689243,108.916335 42.2191235,101.649402 C47.1912351,79.0836653 56.752988,57.6653386 62.1075697,35.4820717 C41.4541833,34.7171315 20.8007968,36.247012 0.529880478,33.9521912 C3.97211155,24.0079681 7.41434263,14.063745 10.0916335,4.11952191 C277.820717,1.44223108 545.932271,4.88446215 813.661355,2.20717131 C861.85259,-0.470119522 910.426295,1.05976096 958.61753,1.05976096 Z M821.310757,33.9521912 C700.832669,33.5697211 580.737052,33.9521912 460.258964,34.3346614 C453.756972,57.6653386 444.195219,79.8486056 440.370518,103.561753 C442.665339,102.796813 447.25498,102.031873 449.549801,101.649402 C461.406375,90.1752988 460.258964,72.9641434 456.051793,58.0478088 C470.968127,58.0478088 485.884462,58.0478088 500.800797,57.2828685 C502.713147,61.1075697 505.007968,64.9322709 506.920319,68.7569721 C517.247012,68.374502 527.573705,69.5219124 537.517928,67.6095618 C545.167331,63.7848606 551.669323,56.9003984 560.848606,57.6653386 C584.944223,57.6653386 609.039841,57.2828685 633.135458,57.6653386 C629.693227,71.4342629 624.338645,84.8207171 622.043825,99.3545817 C639.25498,94.3824701 655.701195,86.7330677 671.38247,77.936255 C679.796813,74.1115538 680.944223,64.5498008 684.768924,57.2828685 C698.155378,56.9003984 711.541833,56.9003984 724.928287,57.2828685 C722.250996,66.8446215 719.573705,76.7888446 717.661355,86.7330677 C727.605578,77.936255 735.63745,67.2270916 745.581673,58.4302789 C757.820717,56.5179283 770.442231,58.0478088 783.063745,58.0478088 C779.621514,71.4342629 774.649402,84.438247 771.589641,97.8247012 C790.713147,94.3824701 808.306773,86.7330677 826.282869,79.8486056 C831.63745,77.936255 835.079681,73.3466135 837.374502,68.374502 C832.01992,67.2270916 827.047809,66.0796813 821.693227,65.314741 C822.075697,63.4023904 822.458167,59.1952191 822.458167,57.2828685 C827.812749,56.5179283 833.549801,55.752988 838.904382,54.2231076 C843.494024,49.250996 844.258964,41.2191235 847.318725,34.7171315 C838.521912,33.5697211 830.10757,33.5697211 821.310757,33.9521912 Z M106.474104,35.0996016 C100.354582,56.1354582 91.940239,76.4063745 87.3505976,97.8247012 C114.888446,92.8525896 136.689243,72.5816733 160.01992,58.0478088 C168.816733,57.2828685 177.613546,57.2828685 186.410359,58.0478088 C192.912351,59.1952191 199.796813,64.1673307 206.681275,60.3426295 C218.155378,56.1354582 230.394422,58.0478088 242.250996,57.6653386 C241.486056,64.1673307 240.721116,70.6693227 240.338645,77.5537849 C252.960159,75.2589641 268.258964,76.7888446 276.673307,65.314741 C281.645418,59.1952191 289.677291,57.6653386 296.944223,57.6653386 C321.804781,57.6653386 346.665339,57.2828685 371.908367,58.0478088 C368.083665,71.8167331 362.729084,85.5856574 360.051793,99.7370518 C374.968127,95.1474104 389.501992,88.6454183 402.888446,80.6135458 C409.772908,66.0796813 412.832669,50.0159363 417.804781,34.7171315 C313.772908,33.9521912 210.123506,33.9521912 106.474104,35.0996016 Z M572.705179,98.2071713 C576.52988,97.059761 580.737052,95.5298805 584.561753,94.3824701 C586.856574,85.5856574 589.151394,77.1713147 591.063745,68.7569721 C574.61753,66.0796813 576.14741,87.1155378 572.705179,98.2071713 Z M327.541833,67.9920319 C323.334661,68.374502 319.50996,68.7569721 315.302789,69.1394422 C313.007968,78.7011952 310.330677,87.8804781 307.270916,97.059761 C310.330677,97.059761 316.450199,96.2948207 319.50996,96.2948207 C323.334661,87.1155378 326.394422,77.936255 327.541833,67.9920319 Z" transform="rotate(-15 1192.799 186.68)"/>
    <g transform="rotate(-15 312.68 215.947)">
      <path fill="#BA0E37" d="M424.549993,76.7586682 L424.549993,62.7908685 C424.549993,62.5122685 424.668993,62.2336685 424.867793,62.0362685 C425.105793,61.7982685 425.343793,61.7184685 425.661593,61.7184685 C425.977993,61.7184685 426.215993,61.7982685 426.416193,62.0362685 C426.620193,62.2054685 426.706936,62.4343256 426.727556,62.6717052 L426.732593,62.7908685 L426.732593,77.1562682 C427.050393,77.1954682 427.288393,77.3144682 427.526393,77.5132682 C427.731593,77.7520682 427.848336,78.0186397 427.877503,78.3147458 L427.884793,78.4652682 L427.884793,78.9818682 C427.884793,79.3780682 427.765793,79.6958682 427.526393,79.9338682 C427.328059,80.0983682 427.129726,80.2366182 426.885212,80.3008173 L426.732593,80.3300682 L426.732593,82.2354682 C427.716593,83.2181348 429.239005,83.6255634 431.368765,83.4565445 L431.692793,83.4268681 L431.772593,78.6234682 L451.218592,85.6878681 C467.104672,88.430972 483.869405,90.6244338 501.476871,92.2013672 L503.682191,92.395268 L504.118991,92.435868 C515.271391,93.386468 526.738791,94.101868 538.564591,94.5778679 C546.898791,95.0538679 553.050391,95.7286679 556.980191,96.5224679 C558.04979,96.7604679 559.08299,97.0782679 560.07559,97.4352679 C560.43119,97.5542679 560.78819,97.7124679 561.10599,97.9112679 C562.14171,98.5904079 563.049288,99.4283079 563.799127,100.42905 L564.04319,100.768668 L568.40839,100.768668 C570.59099,100.926868 572.05959,102.793068 572.73439,106.323868 C573.80539,111.284068 573.29019,120.253868 571.22519,133.310267 C570.844229,135.333536 569.839377,136.40026 568.245483,136.479322 L568.05139,136.484067 L565.98779,136.484067 C565.320084,146.00444 564.412125,155.868728 563.326517,166.112217 L563.09119,168.313067 L564.04319,168.313067 L568.52739,157.796267 C568.01079,156.050467 567.73359,154.145067 567.73359,152.081467 C567.73359,148.231467 568.64779,144.977867 570.55179,142.239467 C572.10786,140.000441 573.917549,138.668297 575.983308,138.278567 L576.26659,138.231267 L577.37679,138.151467 C578.17549,138.151467 578.944178,138.303673 579.681915,138.554626 L579.99619,138.668067 L579.99619,165.494867 C579.267315,165.772942 578.507356,165.928823 577.71725,165.963448 L577.37679,165.970867 L576.26659,165.891067 C575.102607,165.74605 574.03744,165.301054 573.073247,164.585195 L572.81279,164.383267 L571.34419,168.313067 L579.95699,168.313067 C581.010085,168.313067 581.563089,168.810645 581.618382,169.842702 L581.62299,170.019667 L581.62299,181.250466 C581.62299,182.302235 581.125412,182.856425 580.127876,182.911848 L579.95699,182.916466 L542.970391,182.916466 C542.842711,181.869266 542.715927,180.82117 542.528394,179.793682 L542.375391,179.027267 L538.486191,180.535066 L538.802591,182.916466 C539.002791,184.663666 539.121791,186.448666 539.121791,188.274266 C539.121791,200.368937 534.90331,210.698016 526.540828,219.262831 L526.104591,219.704266 L525.667791,220.141066 C517.056391,228.553666 506.738391,232.760666 494.633992,232.760666 C482.371392,232.760666 471.893792,228.395466 463.202592,219.704266 C455.054494,211.59468 450.737354,201.875686 450.211345,190.548612 L450.186792,189.940266 L444.789792,189.940266 C444.615842,191.851266 444.502989,193.912329 444.397773,196.072808 L444.352992,197.004666 L221.044596,197.004666 L220.568596,192.520466 L210.488596,190.536666 C209.982596,201.643916 205.800681,211.22111 197.944177,219.266922 L197.511997,219.704266 L197.075197,220.141066 C188.502997,228.553666 178.145797,232.760666 166.041397,232.760666 C153.778797,232.760666 143.302598,228.395466 134.611398,219.704266 C126.461924,211.59468 122.14476,201.875686 121.657251,190.548612 L121.634798,189.940266 L121.594198,188.313466 L114.847598,188.869266 L114.808398,190.417666 L114.847598,204.227266 C114.847598,204.623466 114.689398,204.981866 114.410798,205.259066 C114.094398,205.576866 113.737398,205.735066 113.339798,205.735066 C112.902998,205.735066 112.545998,205.576866 112.268798,205.259066 C112.025023,205.016516 111.873429,204.711797 111.83934,204.373984 L111.831998,204.227266 L111.831998,189.107266 L25.0809996,195.813266 L25.0809996,191.408866 L17.3417997,192.124266 L17.3025997,192.124266 C10.5559998,192.440666 5.9919999,189.504866 3.57139994,183.314066 C3.49159994,183.076066 3.45239994,182.797466 3.45239994,182.559466 C2.61799996,182.399866 1.90399997,182.003666 1.30899998,181.369466 C0.435399993,180.535066 -1.330136e-11,179.464066 -1.330136e-11,178.272667 C-1.330136e-11,177.043467 0.435399993,176.011667 1.30899998,175.138067 C2.14339996,174.305067 3.17379995,173.869667 4.40439992,173.869667 C5.6349999,173.869667 6.66679989,174.305067 7.49979987,175.138067 C8.37339986,176.011667 8.81019985,177.043467 8.81019985,178.272667 C8.81019985,179.38464 8.42969852,180.391731 7.66869587,181.199466 L7.49979987,181.369466 L7.22259988,181.646666 L7.34159987,181.884666 C9.00941348,186.190335 12.154708,188.257719 16.77879,188.127329 L17.1037997,188.114666 L40.7959993,185.933466 L37.6613994,185.933466 L37.6613994,181.923866 L29.7639995,181.923866 C28.3123745,181.923866 27.2102027,181.611327 26.4897837,180.982789 L26.3507996,180.852866 L21.3905996,180.852866 C19.5224397,180.547778 18.5342234,179.658212 18.3875532,178.112326 L18.3735997,177.915667 L18.3735997,171.843867 C18.5268157,170.244507 19.4825609,169.339296 21.2445514,169.164154 L21.4689996,169.146067 L26.6279995,169.146067 C26.8601662,168.9139 27.1467773,168.738122 27.4651477,168.593618 L27.6597995,168.510467 L27.6597995,166.089867 L25.6353996,166.089867 L25.6353996,154.502067 C24.0418344,152.869667 23.0643856,150.548139 22.7741158,147.640401 L22.7387996,147.240267 L19.3661997,107.158268 C19.4053997,105.173068 19.6825997,103.626068 20.2383997,102.473868 C20.5569774,101.840446 20.9684737,101.299942 21.4738718,100.908403 L21.6677996,100.768668 L32.1047995,100.054668 C33.1465594,97.9725079 35.9850737,96.8270382 40.6203422,96.6169754 L41.0339993,96.6008679 L80.7197986,94.3006679 L103.538398,88.704868 L109.491198,80.1312682 L109.530398,80.0528682 L109.729198,80.1718682 C113.458798,81.4416682 117.784798,81.8392682 122.705798,81.3618682 C126.277198,80.8872682 129.729598,78.3462682 133.062998,73.7038683 C142.270798,59.7346685 149.294597,47.5112687 154.254797,36.9944689 C155.631257,34.0514616 155.902933,31.6251445 155.034824,29.7130173 L154.929597,29.4946691 L150.683397,20.8426692 L151.993797,18.9386692 L149.969397,15.0480693 C149.731397,13.9378693 149.969397,13.1832693 150.644197,12.7870693 C167.431597,9.0168694 184.892397,6.11886945 202.949597,4.05666948 C221.271676,1.98186952 239.701153,0.661379043 258.204419,0.0915970773 L261.126596,0.00786955377 L286.605195,0.00786955377 C306.605595,-0.111130444 326.687194,1.11946953 346.767394,3.69966949 C360.498594,5.28726946 370.221594,7.66726942 375.975594,10.9222694 C377.124444,11.4960194 377.165474,12.6972301 376.098685,14.4192015 L375.975594,14.6126693 L374.744994,16.1204693 C371.333194,21.6770692 371.333194,26.2802691 374.744994,29.850269 L374.744994,29.850269 L415.661393,81.3226682 L418.187,80.55 L418.200993,80.5694682 L419.029,80.293 L421.374793,79.5768682 C421.335212,79.5683221 421.295783,79.5597305 421.256505,79.5510939 L421.296393,79.5376682 C421.054859,79.4472259 419.094068,78.9435474 418.045181,78.6375586 C417.473243,78.4303595 416.955718,78.2125746 416.494393,77.9892682 L416.623,78.05 L416.559034,77.9323929 C416.329412,77.4927312 416.292647,77.1551789 416.397381,76.8978755 C416.527631,76.6262664 416.811528,76.4248031 417.250713,76.2924055 C418.427519,75.9667071 420.464111,76.2161939 421.618206,76.2998147 L421.789982,76.3218027 L421.789982,76.3218027 L422.090193,76.3624683 L424.549993,76.7586682 Z M342.917394,27.8664691 L314.186595,27.8664691 C312.607642,31.3341867 310.130546,33.1190413 306.683625,33.221033 L306.367595,33.225669 L291.446395,33.225669 C286.788504,33.3804299 284.027758,35.7378088 283.130081,40.2991166 L283.072995,40.6064689 L283.072995,44.6132688 C282.60986,47.5092255 280.793546,48.7153649 277.661448,48.1942906 L277.397395,48.1468687 L277.397395,83.3876681 L403.397395,84.1800681 L395.142993,74.2190683 L384.508593,71.3224683 L384.508593,77.4726682 L375.261594,77.4726682 L375.261594,62.2336685 L384.508593,62.2336685 L384.904793,61.8766685 L364.149794,36.8754689 C358.791994,30.883469 351.727594,27.8664691 342.917394,27.8664691 Z M253.649634,29.0356272 L189.319635,29.0356272 C184.164379,29.0356272 180.447609,31.1178913 178.132795,35.3189477 L177.969835,35.6226271 L160.866035,70.6646265 C159.516435,73.4436264 159.516435,76.4592264 160.866035,79.6736263 C162.24941,81.9806075 164.974244,83.2075899 169.076174,83.3545735 L169.477435,83.3654263 L254.800434,80.0306263 C258.710873,79.5662361 260.657148,77.7040112 260.565156,74.4803529 L260.554434,74.2360264 L260.554434,34.1540271 C260.117634,30.8612272 257.816034,29.1546272 253.649634,29.0356272 Z"/>
      <path fill="#363734" d="M494.355392,138.866867 C507.928391,138.866867 519.476991,143.786467 529.041791,153.669067 C536.104791,161.010667 540.549791,169.463867 542.375391,179.027267 L538.486191,180.535066 C537.017591,171.527467 532.890391,163.630067 526.104591,156.842867 C517.413391,148.151667 506.935791,143.827067 494.633992,143.827067 C483.879192,143.827067 474.553792,147.121267 466.537392,153.788067 C465.386592,154.740067 464.274992,155.731267 463.202592,156.842867 C454.512792,165.534067 450.186792,176.011667 450.186792,188.274266 L450.186792,189.940266 L444.789792,189.940266 C445.185992,185.495266 445.743192,181.687266 446.455792,178.591867 C448.082592,170.494267 451.616192,163.193267 456.972592,156.764467 L460.226192,153.193067 C469.671992,143.628267 481.060992,138.866867 494.355392,138.866867"/>
      <path fill="#262626" d="M526.104591,156.842867 C532.890391,163.630067 537.017591,171.527467 538.486191,180.535066 L538.802591,182.916466 C539.002791,184.663666 539.121791,186.448666 539.121791,188.274266 C539.121791,200.577466 534.756591,211.053666 526.104591,219.704266 L525.667791,220.141066 C517.056391,228.553666 506.738391,232.760666 494.633992,232.760666 C482.371392,232.760666 471.893792,228.395466 463.202592,219.704266 C454.908992,211.449866 450.584392,201.528066 450.186792,189.940266 L450.186792,188.274266 C450.186792,176.011667 454.512792,165.534067 463.202592,156.842867 C464.274992,155.731267 465.386592,154.740067 466.537392,153.788067 C474.553792,147.121267 483.879192,143.827067 494.633992,143.827067 C506.935791,143.827067 517.413391,148.151667 526.104591,156.842867"/>
      <path fill="#E9E9E9" d="M494.633992,158.707667 C502.808591,158.707667 509.793191,161.605667 515.548591,167.359667 C521.343191,173.154267 524.200591,180.099666 524.200591,188.274266 C524.200591,196.448866 521.343191,203.434866 515.548591,209.187466 C509.793191,214.941466 502.808591,217.839466 494.633992,217.839466 C486.459392,217.839466 479.513992,214.941466 473.720792,209.187466 C467.966792,203.434866 465.068792,196.448866 465.068792,188.274266 C465.068792,180.099666 467.966792,173.154267 473.720792,167.359667 C479.513992,161.605667 486.459392,158.707667 494.633992,158.707667"/>
      <path fill="#E9E9E9" d="M495.982192,201.369866 C496.420392,201.845866 496.658392,202.362466 496.658392,203.037266 C496.658392,203.672866 496.420392,204.227266 495.982192,204.703266 C495.506192,205.140066 494.951792,205.378066 494.276992,205.378066 C493.641392,205.378066 493.086992,205.140066 492.648792,204.703266 C492.174192,204.227266 491.936192,203.672866 491.936192,203.037266 C491.936192,202.362466 492.174192,201.845866 492.648792,201.369866 C493.086992,200.893866 493.641392,200.655866 494.276992,200.655866 C494.951792,200.655866 495.506192,200.893866 495.982192,201.369866 Z M479.712792,185.853666 C480.346992,185.853666 480.902792,186.091666 481.380192,186.528466 C481.854792,187.003066 482.053592,187.560266 482.053592,188.194466 C482.053592,188.869266 481.854792,189.425066 481.380192,189.860466 C480.902792,190.337866 480.346992,190.575866 479.712792,190.575866 C479.077192,190.575866 478.522792,190.337866 478.045392,189.860466 C477.569392,189.425066 477.331392,188.869266 477.331392,188.194466 C477.331392,187.560266 477.569392,187.003066 478.045392,186.528466 C478.522792,186.091666 479.077192,185.853666 479.712792,185.853666 Z M495.982192,171.605867 C496.420392,172.081867 496.658392,172.598467 496.658392,173.273267 C496.658392,173.908867 496.420392,174.463267 495.982192,174.939267 C495.506192,175.377467 494.951792,175.615467 494.276992,175.615467 C493.641392,175.615467 493.086992,175.377467 492.648792,174.939267 C492.174192,174.463267 491.936192,173.908867 491.936192,173.273267 C491.936192,172.598467 492.174192,172.081867 492.648792,171.605867 C493.086992,171.131267 493.641392,170.893267 494.276992,170.893267 C494.951792,170.893267 495.506192,171.131267 495.982192,171.605867 Z M509.237391,185.853666 C509.872991,185.853666 510.428791,186.091666 510.904791,186.528466 C511.341591,187.003066 511.579591,187.560266 511.579591,188.194466 C511.579591,188.869266 511.341591,189.425066 510.904791,189.860466 C510.428791,190.337866 509.872991,190.575866 509.237391,190.575866 C508.563991,190.575866 508.008191,190.337866 507.571391,189.860466 C507.095391,189.425066 506.857391,188.869266 506.857391,188.194466 C506.857391,187.560266 507.095391,187.003066 507.571391,186.528466 C508.008191,186.091666 508.563991,185.853666 509.237391,185.853666 L509.237391,185.853666 Z"/>
      <path fill="#262626" d="M500.666591 169.424667C503.603791 170.336067 506.260991 171.962867 508.603191 174.305067 510.904791 176.606667 512.532991 179.226067 513.444391 182.122666L502.373191 182.122666 500.666591 180.416066 500.666591 169.424667M488.602792 169.424667L488.602792 180.456666 486.894792 182.122666 475.823592 182.122666C476.736392 179.226067 478.363192 176.606667 480.664792 174.305067 483.006992 171.962867 485.665592 170.336067 488.602792 169.424667M475.743792 194.186466L486.736592 194.186466 487.649392 195.219666 488.602792 196.051266 488.602792 207.084666C485.665592 206.171866 483.006992 204.545066 480.664792 202.204266 478.323992 199.822866 476.656592 197.162866 475.743792 194.186466M502.531391 194.186466L513.524191 194.186466C512.611391 197.162866 510.945391 199.822866 508.603191 202.204266 506.260991 204.545066 503.603791 206.211066 500.666591 207.123866L500.666591 196.093266 501.618591 195.219666 502.531391 194.186466"/>
      <path fill="#E9E9E9" d="M572.73439 106.323868C573.80539 111.284068 573.29019 120.253868 571.22519 133.310267 570.82899 135.414467 569.75799 136.484067 568.05139 136.484067L565.98779 136.484067C566.54359 128.508267 566.93979 120.809667 567.21839 113.349068 567.33739 108.706668 566.46379 104.776868 564.51919 101.601668L564.04319 100.768668 568.40839 100.768668C570.59099 100.926868 572.05959 102.793068 572.73439 106.323868M579.99619 138.668067L579.99619 165.494867C579.16319 165.812667 578.28959 165.970867 577.37679 165.970867L576.26659 165.891067 576.26659 138.231267 577.37679 138.151467C578.28959 138.151467 579.16319 138.350267 579.99619 138.668067"/>
      <path fill="#5D5D5A" d="M568.52739,157.796267 C569.00339,159.264867 569.67819,160.653667 570.55179,161.882867 C571.22519,162.914667 571.97979,163.749067 572.81279,164.383267 L571.34419,168.313067 L564.04319,168.313067 L568.52739,157.796267"/>
      <path fill="#8A8988" d="M571.34419,168.313067 L579.95699,168.313067 C581.06859,168.313067 581.62299,168.867467 581.62299,170.019667 L581.62299,181.250466 C581.62299,182.360666 581.06859,182.916466 579.95699,182.916466 L557.058591,182.916466 C556.026791,182.877266 555.470991,182.321466 555.470991,181.250466 L555.470991,170.019667 C555.470991,168.867467 556.026791,168.313067 557.177591,168.313067 L571.34419,168.313067"/>
      <path fill="#E9E9E9" d="M427.526393,77.5132682 C427.765793,77.7918682 427.884793,78.1082682 427.884793,78.4652682 L427.884793,78.9818682 C427.884793,79.3780682 427.765793,79.6958682 427.526393,79.9338682 C427.288393,80.1312682 427.050393,80.2908682 426.732593,80.3300682 L426.574393,80.3300682 L425.105793,80.1718682 L421.374793,79.5768682 C419.351793,79.1400682 417.723593,78.5842682 416.494393,77.9892682 C415.700593,76.2434683 417.526193,75.7268683 422.090193,76.3624683 L424.549993,76.7586682 L426.574393,77.1156682 L426.732593,77.1562682 C427.050393,77.1954682 427.288393,77.3144682 427.526393,77.5132682"/>
      <path fill="#BA0E37" d="M431.772593,78.6234682 L451.218592,85.6878681 C448.600592,86.8792681 444.233992,87.8312681 438.082393,88.625068 L431.614393,88.2680681 L431.772593,78.6234682"/>
      <path fill="#E9E9E9" d="M366.689394,34.692869 L407.763993,84.1800681 L403.397393,84.1800681 L395.142993,74.2190683 L391.929993,70.3704684 L384.904793,61.8766685 L364.149794,36.8754689 C358.791994,30.883469 351.727594,27.8664691 342.917394,27.8664691 L285.454395,27.8664691 C282.636195,27.9070691 280.572595,28.5426691 279.183795,29.811069 C277.913995,31.080869 277.318995,32.906469 277.397395,35.367669 L277.397395,83.3876681 L274.024795,83.3456681 L274.024795,35.406869 C273.944995,31.835469 274.898395,29.1768691 276.841595,27.3512691 C278.707795,25.5256691 281.565195,24.5736691 285.413795,24.4938691 L342.917394,24.4938691 C352.759394,24.5344691 360.656794,27.9070691 366.648794,34.653669 L366.689394,34.692869"/>
      <path fill="#E9E9E9" d="M407.763993 84.1800681L410.461793 87.0766681 410.143993 87.0766681C389.230793 86.3234681 368.117394 85.9258681 346.767394 85.8866681L269.421595 85.8866681C270.533195 84.4180681 272.040995 83.5458681 274.024795 83.3456681L277.397395 83.3876681 403.397393 84.1800681 407.763993 84.1800681M260.611396 34.295269C260.174596 31.002469 257.872996 29.2958691 253.706596 29.1768691L189.376597 29.1768691C184.098597 29.1768691 180.328397 31.359469 178.026797 35.7638689L160.922997 70.8058683C159.573397 73.5848683 159.573397 76.6004682 160.922997 79.8148682 162.350997 82.1962682 165.208397 83.4268681 169.534397 83.5066681L254.857396 80.1718682C258.865596 79.6958682 260.810196 77.7512682 260.611396 74.3772683L260.611396 34.295269zM253.745796 26.8346691C259.460596 26.9942691 262.516796 29.4148691 262.953596 34.097869L262.953596 74.2190683C263.349796 79.1400682 260.691196 81.8798682 255.015596 82.5140681L169.573597 85.8474681C164.096797 85.7676681 160.525397 84.1002681 158.818797 80.8872682L158.779597 80.7682682C157.112197 76.8384682 157.152797 73.1480683 158.779597 69.7740684L175.922597 34.692869C178.662397 29.4540691 183.146597 26.8346691 189.376597 26.8346691L253.745796 26.8346691 253.745796 26.8346691zM285.454395 27.8664691L314.186595 27.8664691C312.559795 31.439269 309.979595 33.225669 306.367595 33.225669L291.446395 33.225669C286.684995 33.383869 283.905995 35.8436689 283.072995 40.6064689L283.072995 44.6132688C282.596995 47.5896687 280.691595 48.7810687 277.397395 48.1468687L277.397395 35.367669C277.318995 32.906469 277.913995 31.080869 279.183795 29.811069 280.572595 28.5426691 282.636195 27.9070691 285.454395 27.8664691"/>
      <polyline fill="#F4F3F1" points="384.905 61.877 391.93 70.37 384.509 68.545 384.509 62.234 384.905 61.877"/>
      <polyline fill="#E9E9E9" points="384.509 68.545 391.93 70.37 395.143 74.219 384.509 71.322 381.135 70.449 381.135 67.751 384.509 68.545"/>
      <path fill="#E9E9E9" d="M274.024795 100.966068L302.201195 100.966068C302.637995 100.966068 303.034195 101.125668 303.391195 101.443468 303.708995 101.761268 303.868595 102.157468 303.868595 102.634868L303.868595 103.784268C303.868595 104.261668 303.708995 104.657868 303.391195 104.975668 303.034195 105.292068 302.637995 105.490868 302.201195 105.490868L274.024795 105.490868C273.548795 105.490868 273.151195 105.292068 272.834795 104.975668 272.516995 104.657868 272.357395 104.261668 272.357395 103.784268L272.357395 102.634868C272.357395 102.157468 272.516995 101.761268 272.834795 101.443468 273.151195 101.125668 273.548795 100.966068 274.024795 100.966068M154.533397 24.1368691L156.755197 28.5818691C158.065597 31.002469 157.827597 34.057269 156.080397 37.8288689 151.080997 48.4240687 143.977398 60.7650685 134.691198 74.8546683 130.960198 80.1312682 126.991198 82.9102681 122.904598 83.3456681 117.665798 83.8636681 113.062598 83.4268681 109.093598 82.0772682 108.816398 81.9974682 108.617598 81.8392682 108.498598 81.5998682L108.498598 81.5606682 109.491198 80.1312682 109.729198 80.1718682C113.458798 81.4416682 117.784798 81.8392682 122.705798 81.3618682 126.277198 80.8872682 129.729598 78.3462682 133.062998 73.7038683 142.270798 59.7346685 149.294597 47.5112687 154.254797 36.9944689 155.684197 33.938269 155.922197 31.439269 154.929597 29.4946691L150.683397 20.8426692 151.993797 18.9386692 152.865997 20.7628692 154.533397 24.1368691"/>
      <polygon fill="#E9E9E9" points="159.851 56.361 150.128 56.361 163.701 29.534 173.781 29.891"/>
      <path fill="#E9E9E9" d="M169.415397,34.733469 C169.296397,34.614469 169.177397,34.573869 169.058397,34.573869 L162.986597,34.573869 C162.826997,34.573869 162.707997,34.614469 162.628197,34.733469 C162.509197,34.852469 162.430797,34.930869 162.430797,35.090469 L162.430797,35.129669 C162.430797,35.287869 162.509197,35.367669 162.628197,35.4866689 C162.707997,35.6056689 162.826997,35.6448689 162.986597,35.6448689 L169.058397,35.6448689 C169.177397,35.6448689 169.296397,35.6056689 169.415397,35.4866689 C169.534397,35.367669 169.573597,35.287869 169.573597,35.129669 L169.573597,35.090469 C169.573597,34.930869 169.534397,34.852469 169.415397,34.733469 Z M167.866997,37.5908689 C167.747997,37.4718689 167.668197,37.4312689 167.509997,37.4312689 L161.438197,37.4312689 C161.279997,37.4312689 161.160997,37.4718689 161.081197,37.5908689 C160.962197,37.7098689 160.922997,37.8288689 160.922997,37.9478689 L160.922997,37.9870689 C160.922997,38.1452689 160.962197,38.2642689 161.081197,38.3440689 C161.160997,38.4630689 161.279997,38.5022689 161.438197,38.5022689 L167.509997,38.5022689 C167.668197,38.5022689 167.747997,38.4630689 167.866997,38.3440689 C167.985997,38.2642689 168.026597,38.1452689 168.026597,37.9870689 L168.026597,37.9478689 C168.026597,37.8288689 167.985997,37.7098689 167.866997,37.5908689 Z M165.764197,40.2088689 L159.692397,40.2088689 C159.532797,40.2088689 159.413797,40.2480689 159.335397,40.3278689 C159.216397,40.4482689 159.177197,40.5672689 159.177197,40.7254689 C159.177197,40.8836689 159.216397,41.0026689 159.335397,41.1216689 C159.413797,41.2406689 159.532797,41.2812689 159.692397,41.2812689 L165.764197,41.2812689 C165.922397,41.2812689 166.041397,41.2406689 166.160397,41.1216689 C166.240197,41.0026689 166.279397,40.8836689 166.279397,40.7254689 C166.279397,40.5672689 166.240197,40.4482689 166.160397,40.3278689 C166.041397,40.2480689 165.922397,40.2088689 165.764197,40.2088689 Z M164.890597,42.9472688 C164.771597,42.8282688 164.652597,42.7890688 164.494397,42.7890688 L158.461797,42.7890688 C158.303597,42.7890688 158.184597,42.8282688 158.065597,42.9472688 C157.946597,43.0662688 157.905997,43.1852688 157.905997,43.3042688 L157.905997,43.3448688 C157.905997,43.5030688 157.946597,43.6220688 158.065597,43.7018688 C158.184597,43.8208688 158.303597,43.8600688 158.461797,43.8600688 L164.494397,43.8600688 C164.652597,43.8600688 164.771597,43.8208688 164.890597,43.7018688 C164.970397,43.6220688 165.048797,43.5030688 165.048797,43.3448688 L165.048797,43.3042688 C165.048797,43.1852688 164.970397,43.0662688 164.890597,42.9472688 Z M157.271797,45.4476688 C157.112197,45.4476688 156.993197,45.5274688 156.874197,45.6058688 C156.755197,45.7248688 156.715997,45.8438688 156.715997,46.0034688 C156.715997,46.1616688 156.755197,46.2806688 156.874197,46.4010688 C156.993197,46.5200688 157.112197,46.5592688 157.271797,46.5592688 L163.302997,46.5592688 C163.462597,46.5592688 163.581597,46.5200688 163.700597,46.4010688 C163.819597,46.2806688 163.858797,46.1616688 163.858797,46.0034688 C163.858797,45.8438688 163.819597,45.7248688 163.700597,45.6058688 C163.581597,45.5274688 163.462597,45.4476688 163.302997,45.4476688 L157.271797,45.4476688 Z M161.914197,48.3050687 L155.842397,48.3050687 C155.684197,48.3050687 155.565197,48.3442687 155.485397,48.4632687 C155.366397,48.5822687 155.327197,48.7012687 155.327197,48.8608687 C155.327197,49.0190687 155.366397,49.1380687 155.485397,49.2164687 C155.565197,49.3368687 155.684197,49.3774687 155.842397,49.3774687 L161.914197,49.3774687 C162.072397,49.3774687 162.192797,49.3368687 162.311797,49.2164687 C162.390197,49.1380687 162.430797,49.0190687 162.430797,48.8608687 C162.430797,48.7012687 162.390197,48.5822687 162.311797,48.4632687 C162.192797,48.3442687 162.072397,48.3050687 161.914197,48.3050687 Z M154.295397,51.0826687 C154.176397,51.0826687 154.057397,51.1232687 153.938397,51.2016687 C153.817997,51.3206687 153.778797,51.4396687 153.778797,51.5992687 L153.778797,51.6384687 C153.778797,51.7574687 153.817997,51.8764687 153.938397,51.9954687 C154.057397,52.1144687 154.176397,52.1536687 154.295397,52.1536687 L160.367197,52.1536687 C160.525397,52.1536687 160.644397,52.1144687 160.763397,51.9954687 C160.843197,51.8764687 160.922997,51.7574687 160.922997,51.6384687 L160.922997,51.5992687 C160.922997,51.4396687 160.843197,51.3206687 160.763397,51.2016687 C160.644397,51.1232687 160.525397,51.0826687 160.367197,51.0826687 L154.295397,51.0826687 L154.295397,51.0826687 Z"/>
      <path fill="#F4F3F1" d="M166.041397,158.707667 C174.217397,158.707667 181.200597,161.605667 186.995197,167.359667 C192.750597,173.154267 195.607997,180.099666 195.607997,188.274266 C195.607997,196.448866 192.750597,203.434866 186.995197,209.187466 C181.200597,214.941466 174.217397,217.839466 166.041397,217.839466 C157.905997,217.839466 150.922797,214.941466 145.167398,209.187466 C139.374198,203.434866 136.516798,196.448866 136.516798,188.274266 C136.516798,180.099666 139.374198,173.154267 145.167398,167.359667 C150.922797,161.605667 157.905997,158.707667 166.041397,158.707667"/>
      <path fill="#E9E9E9" d="M167.390997,201.369866 C167.827797,201.845866 168.065797,202.362466 168.065797,203.037266 C168.065797,203.672866 167.827797,204.227266 167.390997,204.703266 C166.914997,205.140066 166.359197,205.378066 165.723597,205.378066 C165.048797,205.378066 164.494397,205.140066 164.057597,204.703266 C163.581597,204.227266 163.343597,203.672866 163.343597,203.037266 C163.343597,202.362466 163.581597,201.845866 164.057597,201.369866 C164.494397,200.893866 165.048797,200.655866 165.723597,200.655866 C166.359197,200.655866 166.914997,200.893866 167.390997,201.369866 Z M151.120197,185.853666 C151.794997,185.853666 152.350797,186.091666 152.787597,186.528466 C153.263597,187.003066 153.501597,187.560266 153.501597,188.194466 C153.501597,188.869266 153.263597,189.425066 152.787597,189.860466 C152.350797,190.337866 151.794997,190.575866 151.120197,190.575866 C150.485997,190.575866 149.930197,190.337866 149.452797,189.860466 C149.017397,189.425066 148.779397,188.869266 148.779397,188.194466 C148.779397,187.560266 149.017397,187.003066 149.452797,186.528466 C149.930197,186.091666 150.485997,185.853666 151.120197,185.853666 Z M167.390997,171.605867 C167.827797,172.081867 168.065797,172.598467 168.065797,173.273267 C168.065797,173.908867 167.827797,174.463267 167.390997,174.939267 C166.914997,175.377467 166.359197,175.615467 165.723597,175.615467 C165.048797,175.615467 164.494397,175.377467 164.057597,174.939267 C163.581597,174.463267 163.343597,173.908867 163.343597,173.273267 C163.343597,172.598467 163.581597,172.081867 164.057597,171.605867 C164.494397,171.131267 165.048797,170.893267 165.723597,170.893267 C166.359197,170.893267 166.914997,171.131267 167.390997,171.605867 Z M180.646197,185.853666 C181.280397,185.853666 181.836197,186.091666 182.312197,186.528466 C182.748997,187.003066 182.986997,187.560266 182.986997,188.194466 C182.986997,188.869266 182.748997,189.425066 182.312197,189.860466 C181.836197,190.337866 181.280397,190.575866 180.646197,190.575866 C179.971397,190.575866 179.454797,190.337866 178.978797,189.860466 C178.502797,189.425066 178.264797,188.869266 178.264797,188.194466 C178.264797,187.560266 178.502797,187.003066 178.978797,186.528466 C179.454797,186.091666 179.971397,185.853666 180.646197,185.853666 L180.646197,185.853666 Z"/>
      <path fill="#262626" d="M172.073997 169.424667C175.011197 170.336067 177.669797 171.962867 180.010597 174.305067 182.312197 176.606667 183.940397 179.226067 184.851797 182.122666L173.780597 182.122666 172.073997 180.416066 172.073997 169.424667M160.010197 169.424667L160.010197 180.456666 158.342797 182.122666 147.230997 182.122666C148.184397 179.226067 149.811197 176.606667 152.112797 174.305067 154.414397 171.962867 157.072997 170.336067 160.010197 169.424667M147.151197 194.186466L158.143997 194.186466 159.095997 195.219666 160.010197 196.051266 160.010197 207.084666C157.072997 206.171866 154.414397 204.545066 152.112797 202.204266 149.731397 199.822866 148.065397 197.162866 147.151197 194.186466M173.979397 194.186466L184.931597 194.186466C184.018797 197.162866 182.391997 199.822866 180.010597 202.204266 177.669797 204.545066 175.011197 206.211066 172.073997 207.123866L172.073997 196.093266 173.025997 195.219666 173.979397 194.186466M209.298596 160.137067C214.775396 167.876267 218.385996 177.956267 220.252196 190.497466L220.568596 192.520466 210.488596 190.536666 210.529196 188.274266C210.529196 185.614266 210.330396 183.035466 209.893596 180.535066 208.424996 171.527467 204.299197 163.630067 197.511997 156.842867 194.336797 153.669067 190.964197 151.088867 187.312997 149.065867 197.591797 150.850867 204.933397 154.502067 209.298596 160.137067"/>
      <path fill="#262626" d="M187.312997,149.065867 C190.964197,151.088867 194.336797,153.669067 197.511997,156.842867 C204.299197,163.630067 208.424996,171.527467 209.893596,180.535066 C210.330396,183.035466 210.529196,185.614266 210.529196,188.274266 L210.488596,190.536666 C209.973396,201.845866 205.647396,211.568866 197.511997,219.704266 L197.075197,220.141066 C188.502997,228.553666 178.145797,232.760666 166.041397,232.760666 C153.778797,232.760666 143.302598,228.395466 134.611398,219.704266 C126.316398,211.449866 121.991798,201.528066 121.634798,189.940266 L121.594198,188.313466 L121.594198,188.274266 C121.594198,186.409466 121.713198,184.583866 121.911998,182.758266 L122.387998,179.622266 C123.975598,171.012267 128.063598,163.390667 134.611398,156.842867 C135.722998,155.731267 136.833198,154.740067 137.983998,153.788067 C140.484398,151.724467 143.064598,149.977267 145.802998,148.550667 L153.025597,147.993467 C146.794198,149.938067 141.198398,153.431067 136.198998,158.391267 C130.841198,163.749067 127.269798,169.781667 125.364398,176.566067 C124.332598,180.257866 123.817398,184.187666 123.817398,188.274266 C123.817398,199.941866 127.943198,209.902866 136.198998,218.155866 C144.414198,226.411666 154.373797,230.499666 166.041397,230.499666 C168.660797,230.499666 171.200397,230.300866 173.620997,229.903266 C182.114797,228.473866 189.536197,224.546866 195.924397,218.155866 C203.743397,210.338266 207.829996,201.012866 208.266796,190.099866 L208.305996,188.274266 C208.305996,176.606667 204.178797,166.645667 195.924397,158.391267 C191.122397,153.589267 185.686197,150.177467 179.653597,148.192267 C182.391997,148.389667 184.931597,148.669667 187.312997,149.065867"/>
      <path fill="#262626" d="M186.995197,167.359667 C181.200597,161.605667 174.217397,158.707667 166.041397,158.707667 C157.905997,158.707667 150.922797,161.605667 145.167398,167.359667 C139.374198,173.154267 136.516798,180.099666 136.516798,188.274266 C136.516798,196.448866 139.374198,203.434866 145.167398,209.187466 C150.922797,214.941466 157.905997,217.839466 166.041397,217.839466 C174.217397,217.839466 181.200597,214.941466 186.995197,209.187466 C192.750597,203.434866 195.607997,196.448866 195.607997,188.274266 C195.607997,180.099666 192.750597,173.154267 186.995197,167.359667 Z M179.653597,148.192267 C185.686197,150.177467 191.122397,153.589267 195.924397,158.391267 C204.178797,166.645667 208.305996,176.606667 208.305996,188.274266 L208.266796,190.099866 C207.829996,201.012866 203.743397,210.338266 195.924397,218.155866 C189.536197,224.546866 182.114797,228.473866 173.620997,229.903266 C171.200397,230.300866 168.660797,230.499666 166.041397,230.499666 C154.373797,230.499666 144.414198,226.411666 136.198998,218.155866 C127.943198,209.902866 123.817398,199.941866 123.817398,188.274266 C123.817398,184.187666 124.332598,180.257866 125.364398,176.566067 C127.269798,169.781667 130.841198,163.749067 136.198998,158.391267 C141.198398,153.431067 146.794198,149.938067 153.025597,147.993467 C157.827597,147.755467 163.263797,147.716267 169.255797,147.874467 C172.947597,147.835267 176.439197,147.915067 179.653597,148.192267 L179.653597,148.192267 Z"/>
      <path fill="#8A8988" d="M137.983998,153.788067 C136.833198,154.740067 135.722998,155.731267 134.611398,156.842867 C128.063598,163.390667 123.975598,171.012267 122.387998,179.622266 L121.911998,182.758266 C121.713198,184.583866 121.594198,186.409466 121.594198,188.274266 L121.594198,188.313466 L114.847598,188.869266 L114.808398,188.869266 L114.808398,190.417666 L114.847598,204.227266 C114.847598,204.623466 114.689398,204.981866 114.410798,205.259066 C114.094398,205.576866 113.737398,205.735066 113.339798,205.735066 C112.902998,205.735066 112.545998,205.576866 112.268798,205.259066 C111.990198,204.981866 111.831998,204.623466 111.831998,204.227266 L111.831998,189.107266 L25.0809996,195.813266 L25.0809996,191.408866 L17.3417997,192.124266 L17.3025997,192.124266 C10.5559998,192.440666 5.9919999,189.504866 3.57139994,183.314066 C3.49159994,183.076066 3.45239994,182.797466 3.45239994,182.559466 C2.61799996,182.399866 1.90399997,182.003666 1.30899998,181.369466 C0.435399993,180.535066 -1.98951963e-14,179.464066 -1.98951963e-14,178.272667 C-1.98951963e-14,177.043467 0.435399993,176.011667 1.30899998,175.138067 C2.14339996,174.305067 3.17379995,173.869667 4.40439992,173.869667 C5.6349999,173.869667 6.66679989,174.305067 7.49979987,175.138067 C8.37339986,176.011667 8.81019985,177.043467 8.81019985,178.272667 C8.81019985,179.464066 8.37339986,180.535066 7.49979987,181.369466 L7.34159987,181.527666 L7.18339988,181.687266 L7.34159987,181.884666 C9.04819985,186.290466 12.3017998,188.352666 17.1037997,188.114666 L40.7959993,185.933466 L114.808398,185.933466 L114.808398,178.432267 C114.927398,170.455067 116.951798,164.145267 120.959998,159.423067 C121.832198,158.471067 122.744998,157.558267 123.737598,156.764467 C128.063598,153.312067 132.865598,150.969867 138.221998,149.779867 C140.484398,149.263267 143.023998,148.867067 145.802998,148.550667 C143.064598,149.977267 140.484398,151.724467 137.983998,153.788067 Z"/>
      <path fill="#8A8988" d="M42.1847993,168.313067 C46.0347992,168.194067 48.1767992,169.820867 48.5337992,173.193467 L48.5337992,176.885267 C48.6933992,179.662866 46.4715992,181.330266 41.8277993,181.923866 L29.7639995,181.923866 C28.2155995,181.923866 27.0647995,181.568266 26.3507996,180.852866 L21.3905996,180.852866 C19.4445997,180.535066 18.4533997,179.583066 18.3735997,177.915667 L18.3735997,171.843867 C18.5331997,170.177867 19.5635997,169.265067 21.4689996,169.146067 L26.6279995,169.146067 C26.9065995,168.867467 27.2635995,168.670067 27.6597995,168.510467 L28.6117995,168.313067 L42.1847993,168.313067"/>
      <path fill="#B4252B" d="M20.2383997,102.473868 L30.7551995,157.279667 C28.6523995,156.764467 26.9065995,155.850267 25.6353996,154.502067 C23.9693996,152.795467 22.9767996,150.335667 22.7387996,147.240267 L19.3661997,107.158268 C19.4053997,105.173068 19.6825997,103.626068 20.2383997,102.473868"/>
      <path fill="#8A8988" d="M34.9621994,134.659867 L39.2475993,166.487467 L33.4543994,166.487467 L30.7551995,157.279667 L20.2383997,102.473868 C20.5967996,101.761268 21.0727996,101.166268 21.6677996,100.768668 L32.1047995,100.054668 L31.7869995,100.926868 C31.7869995,109.459868 32.8187994,120.690667 34.9621994,134.659867"/>
      <path stroke="#0A0B09" stroke-width=".7" d="M564.06279 168.329867L571.32599 168.329867 564.06279 168.329867zM557.064191 182.909466L542.970391 182.909466C542.819191 181.583666 542.632991 180.278866 542.385191 179.007667L557.064191 182.909466zM563.07299 168.329867L564.05999 168.329867 563.07299 168.329867z"/>
      <path stroke="#0A0B09" stroke-width=".7" d="M563.07299 168.329867L557.166391 168.329867C556.043591 168.329867 555.490591 168.878667 555.490591 170.002867L555.490591 181.232266C555.490591 182.321466 556.009991 182.873066 557.064191 182.909466L563.07299 168.329867zM572.79879 164.377667L571.32599 168.329867 572.79879 164.377667zM572.79879 164.377667C571.99659 163.740667 571.24339 162.920267 570.55739 161.901067 569.68799 160.643867 569.01459 159.270467 568.54699 157.782267L572.79879 164.377667zM571.32599 168.329867L579.96539 168.329867C581.08679 168.329867 581.63839 168.878667 581.63839 170.002867L581.63839 181.232266C581.63839 182.355066 581.08679 182.909466 579.96539 182.909466L557.064191 182.909466 571.32599 168.329867zM576.26379 165.899467C575.00939 165.714667 573.85439 165.196667 572.79879 164.377667L576.26379 165.899467zM576.26379 138.245267L577.36839 138.161267C578.28959 138.161267 579.17719 138.330667 580.01579 138.663867L580.01579 165.499067C579.17719 165.816867 578.28959 165.983467 577.36839 165.983467L576.26379 165.899467 576.26379 138.245267zM568.54699 157.782267C567.99539 156.040667 567.72659 154.132467 567.72659 152.073067 567.72659 148.239867 568.66459 144.958267 570.55739 142.231067 572.16459 139.902867 574.07139 138.564467 576.26379 138.245267L568.54699 157.782267zM564.02919 100.765868L564.53039 101.601668C566.45539 104.765668 567.34159 108.682868 567.22539 113.353268 566.95799 120.804067 566.53939 128.502667 565.98499 136.486867L564.02919 100.765868z"/>
      <path stroke="#0A0B09" stroke-width=".7" d="M565.98499 136.486867L568.06259 136.486867C569.75379 136.471467 570.82339 135.417267 571.24339 133.290667 573.30279 120.266468 573.80399 111.279868 572.74839 106.307068 572.04559 102.773468 570.58959 100.932468 568.39859 100.765868L564.02919 100.765868 565.98499 136.486867zM426.746593 82.2326682C427.768593 83.2728681 429.407993 83.6732681 431.684393 83.4408681L426.746593 82.2326682zM410.475793 87.0556681L431.618593 88.2610681 410.475793 87.0556681zM475.827792 182.104466L486.910192 182.104466 475.827792 182.104466zM486.910192 182.104466C485.484992 183.861466 484.783592 185.902666 484.783592 188.249066 484.783592 190.491866 485.435992 192.465866 486.740792 194.175266L486.910192 182.104466zM486.740792 194.175266L475.742392 194.175266 486.740792 194.175266zM513.507391 194.175266L502.543991 194.175266 513.507391 194.175266zM502.375991 182.104466L513.441591 182.104466 502.375991 182.104466zM500.652591 207.112666C498.761192 207.699266 496.767592 207.983466 494.642392 207.983466 492.498992 207.983466 490.475992 207.682466 488.583192 207.097266L500.652591 207.112666zM500.652591 196.100266C498.927792 197.437266 496.920192 198.106466 494.642392 198.106466 492.349192 198.106466 490.323392 197.420466 488.583192 196.048466L500.652591 196.100266zM488.583192 196.048466L488.583192 207.097266 488.583192 196.048466z"/>
      <polygon stroke="#0A0B09" stroke-width=".7" points="486.741 194.175 487.662 195.228 488.583 196.048"/>
      <path stroke="#0A0B09" stroke-width=".7" d="M494.290992,200.668466 C494.943392,200.668466 495.496392,200.902266 495.965392,201.354466 C496.417592,201.822066 496.652792,202.375066 496.652792,203.028866 C496.652792,203.679866 496.417592,204.232866 495.965392,204.685066 C495.496392,205.155466 494.943392,205.387866 494.290992,205.387866 C493.638592,205.387866 493.085592,205.155466 492.634792,204.685066 C492.165792,204.232866 491.930592,203.679866 491.930592,203.028866 C491.930592,202.375066 492.165792,201.822066 492.634792,201.354466 C493.085592,200.902266 493.638592,200.668466 494.290992,200.668466 Z"/>
      <polygon stroke="#0A0B09" stroke-width=".7" points="500.653 196.1 501.624 195.228 502.544 194.175"/>
      <path stroke="#0A0B09" stroke-width=".7" d="M513.507391 194.175266C512.604391 197.153066 510.962191 199.832666 508.604591 202.208466 506.241391 204.552066 503.598191 206.191466 500.652591 207.112666L513.507391 194.175266zM500.652591 207.112666L500.652591 196.100266 500.652591 207.112666zM500.652591 180.411866L500.652591 169.417667 500.652591 180.411866zM488.583192 169.433067L488.583192 180.448266 488.583192 169.433067zM502.543991 194.175266C503.848791 192.465866 504.502591 190.491866 504.502591 188.249066 504.502591 185.902666 503.796991 183.861466 502.375991 182.104466L502.543991 194.175266zM502.375991 182.104466L500.652591 180.411866 502.375991 182.104466zM510.897791 186.524266C511.349991 186.991866 511.582391 187.543466 511.582391 188.197266 511.582391 188.849666 511.349991 189.402666 510.897791 189.854866 510.428791 190.322466 509.875791 190.557666 509.223391 190.557666 508.568191 190.557666 508.019391 190.322466 507.567191 189.854866 507.098191 189.402666 506.862991 188.849666 506.862991 188.197266 506.862991 187.543466 507.098191 186.991866 507.567191 186.524266 508.019391 186.072066 508.568191 185.835466 509.223391 185.835466 509.875791 185.835466 510.428791 186.072066 510.897791 186.524266zM488.583192 180.448266C490.323392 179.073467 492.349192 178.387467 494.642392 178.387467 496.920192 178.387467 498.927792 179.056667 500.652591 180.411866L488.583192 180.448266zM488.583192 180.448266L486.910192 182.104466 488.583192 180.448266zM497.823192 182.104466C498.440592 182.422266 499.010392 182.840866 499.529791 183.360266 499.983391 183.811066 500.350191 184.298266 500.652591 184.816266 501.237791 185.835466 501.538791 186.975066 501.538791 188.249066 501.538791 189.520266 501.237791 190.658466 500.652591 191.679066 500.350191 192.197066 499.983391 192.684266 499.529791 193.135066 499.113992 193.553666 498.677192 193.888266 498.224992 194.175266 497.169392 194.824866 495.965392 195.162266 494.642392 195.162266 493.319392 195.162266 492.115392 194.824866 491.044392 194.175266 490.593592 193.888266 490.172192 193.553666 489.756392 193.135066 489.269192 192.649266 488.884192 192.148066 488.583192 191.596466 488.031592 190.591266 487.745992 189.468466 487.745992 188.249066 487.745992 187.024066 488.031592 185.902666 488.583192 184.900266 488.884192 184.347266 489.269192 183.846066 489.756392 183.360266 490.272992 182.840866 490.842792 182.422266 491.446192 182.104466 492.398192 181.601866 493.470592 181.349866 494.642392 181.349866 495.815592 181.349866 496.868392 181.601866 497.823192 182.104466zM488.583192 169.433067C490.473192 168.829667 492.498992 168.527267 494.642392 168.527267 496.767592 168.527267 498.761192 168.829667 500.652591 169.417667L488.583192 169.433067zM492.634792 171.591867C493.085592 171.139667 493.638592 170.904467 494.290992 170.904467 494.943392 170.904467 495.496392 171.139667 495.965392 171.591867 496.417592 172.059467 496.652792 172.611067 496.652792 173.264867 496.652792 173.918667 496.417592 174.470267 495.965392 174.923867 495.496392 175.391467 494.943392 175.625267 494.290992 175.625267 493.638592 175.625267 493.085592 175.391467 492.634792 174.923867 492.165792 174.470267 491.930592 173.918667 491.930592 173.264867 491.930592 172.611067 492.165792 172.059467 492.634792 171.591867zM500.652591 169.417667C503.598191 170.336067 506.241391 171.958667 508.604591 174.303667 510.897791 176.615067 512.520391 179.207867 513.441591 182.104466L500.652591 169.417667zM513.441591 182.104466C514.060391 184.029466 514.362791 186.072066 514.362791 188.265866 514.362791 190.356066 514.075791 192.314666 513.507391 194.175266L513.441591 182.104466zM488.583192 207.097266C485.651592 206.176066 483.008392 204.535266 480.682992 202.208466 478.304392 199.832666 476.663592 197.151666 475.742392 194.175266L488.583192 207.097266z"/>
      <path stroke="#0A0B09" stroke-width=".7" d="M538.483391 180.529466L538.819391 182.909466C539.002791 184.666466 539.103591 186.455666 539.103591 188.281266 539.103591 200.569066 534.767791 211.046666 526.096191 219.718266L525.660791 220.153666C517.074591 228.538266 506.729991 232.739666 494.642392 232.739666 482.355992 232.739666 471.875592 228.406666 463.205392 219.718266 454.917392 211.431666 450.582992 201.505666 450.199392 189.938866L538.483391 180.529466zM444.792592 189.938866C444.607792 192.131266 444.457992 194.491666 444.340392 197.001866L221.048796 197.001866 220.547596 192.516266 444.792592 189.938866zM444.792592 189.938866L450.199392 189.938866 444.792592 189.938866zM475.827792 182.104466C476.747592 179.207867 478.372992 176.615067 480.682992 174.303667 483.008392 171.976867 485.651592 170.354267 488.583192 169.433067L475.827792 182.104466z"/>
      <path stroke="#0A0B09" stroke-width=".7" d="M477.903992,171.541467 C482.522592,166.938267 488.098792,164.628267 494.642392,164.628267 C501.170591,164.628267 506.745391,166.938267 511.382191,171.541467 C515.985391,176.144667 518.278591,181.736266 518.278591,188.281266 C518.278591,194.809466 515.985391,200.384266 511.382191,204.987466 C508.251791,208.116466 504.669191,210.192666 500.652591,211.196466 C498.744392,211.682266 496.735392,211.917466 494.642392,211.917466 C492.518592,211.917466 490.508192,211.682266 488.583192,211.196466 C484.581992,210.175866 481.032992,208.116466 477.903992,204.987466 C473.297992,200.384266 470.987992,194.809466 470.987992,188.281266 C470.987992,181.736266 473.297992,176.144667 477.903992,171.541467 Z"/>
      <path stroke="#0A0B09" stroke-width=".7" d="M473.734792,167.355467 C479.509792,161.597267 486.473392,158.717467 494.642392,158.717467 C502.811391,158.717467 509.791791,161.597267 515.568191,167.355467 C521.324991,173.130467 524.204791,180.095466 524.204791,188.281266 C524.204791,196.450266 521.324991,203.413866 515.568191,209.170666 C509.791791,214.947066 502.811391,217.843666 494.642392,217.843666 C486.473392,217.843666 479.509792,214.947066 473.734792,209.170666 C467.958392,203.413866 465.081392,196.450266 465.081392,188.281266 C465.081392,180.095466 467.958392,173.130467 473.734792,167.355467 Z"/>
      <path stroke="#0A0B09" stroke-width=".7" d="M475.742392 194.175266C475.190792 192.314666 474.906592 190.357466 474.906592 188.265866 474.906592 186.072066 475.207592 184.029466 475.827792 182.104466L475.742392 194.175266zM481.385792 186.524266C481.837992 186.991866 482.071792 187.543466 482.071792 188.197266 482.071792 188.849666 481.837992 189.402666 481.385792 189.854866 480.916792 190.322466 480.363792 190.557666 479.709992 190.557666 479.057592 190.557666 478.504592 190.322466 478.053792 189.854866 477.584792 189.402666 477.350992 188.849666 477.350992 188.197266 477.350992 187.543466 477.584792 186.991866 478.053792 186.524266 478.504592 186.072066 479.057592 185.835466 479.709992 185.835466 480.363792 185.835466 480.916792 186.072066 481.385792 186.524266z"/>
      <path stroke="#0A0B09" stroke-width=".7" d="M542.385191,179.007667 C540.541391,169.448467 536.090791,160.995267 529.026391,153.680267 C519.468591,143.804667 507.918591,138.866867 494.374992,138.866867 C481.066592,138.866867 469.683192,143.638067 460.226192,153.194467 L456.979592,156.760267 C451.604992,163.204467 448.089592,170.487267 446.465592,178.570867 C445.745992,181.702666 445.194392,185.484066 444.792592,189.938866 L542.385191,179.007667 Z"/>
      <path stroke="#0A0B09" stroke-width=".7" d="M450.199392,189.938866 L450.181192,188.281266 C450.181192,175.993467 454.518392,165.514467 463.205392,156.827467 C464.293192,155.738267 465.399192,154.734467 466.552792,153.779667 C474.539792,147.135267 483.895992,143.821467 494.642392,143.821467 C506.931591,143.821467 517.409191,148.155867 526.096191,156.827467 C532.876391,163.623067 537.010591,171.526067 538.483391,180.529466 L450.199392,189.938866 Z"/>
      <path stroke="#0A0B09" stroke-width=".7" d="M524.522591,158.401067 C531.470791,165.346467 535.485991,173.516867 536.573791,182.909466 C536.776791,184.666466 536.877591,186.455666 536.877591,188.281266 C536.877591,199.950266 532.758791,209.908466 524.522591,218.144666 C518.111991,224.556666 510.679391,228.472466 502.207991,229.896266 C499.781791,230.312066 497.253392,230.515066 494.642392,230.515066 C482.974792,230.515066 473.013792,226.396266 464.778992,218.144666 C456.525992,209.908466 452.407192,199.950266 452.407192,188.281266 C452.407192,184.162466 452.926592,180.262066 453.949992,176.561867 C455.839992,169.784467 459.440792,163.740667 464.778992,158.401067 C473.013792,150.164867 482.974792,146.047467 494.642392,146.047467 C506.309991,146.047467 516.268191,150.164867 524.522591,158.401067 Z"/>
      <path stroke="#0A0B09" stroke-width=".7" d="M542.385191 179.007667L550.569591 175.777867 550.166391 173.500067C548.025791 162.904867 542.854191 153.564067 534.648791 145.445467 523.534191 134.512867 510.110991 129.038867 494.374992 129.038867 478.906392 129.038867 465.681992 134.329467 454.701792 144.909267L454.165592 145.445467C450.350592 149.210067 447.185192 153.226667 444.658192 157.530267 444.257792 158.217667 443.871392 158.920467 443.503192 159.640067 440.103993 166.116467 437.326393 175.055467 435.132593 186.423466L444.792592 189.938866 542.385191 179.007667zM268.087395 88.780468C267.903995 89.431468 267.752795 90.137068 267.651995 90.888868L267.651995 191.645466 416.669393 191.645466 416.669393 104.298068C416.669393 98.5888679 415.279193 93.784068 412.518393 89.900468L268.087395 88.780468zM374.736594 16.0980693L422.074793 76.3414683 374.736594 16.0980693zM403.411393 84.1926681L407.762593 84.1926681 403.411393 84.1926681zM378.116194 62.2140685L378.116194 77.4628682 378.116194 62.2140685zM314.189395 27.8482691L342.913194 27.8482691C351.717794 27.8636691 358.798994 30.861069 364.139994 36.8684689L391.927193 70.3480684 314.189395 27.8482691zM421.371993 79.5544682L415.665593 81.3296682 374.736594 29.855869C371.337394 26.2578691 371.337394 21.6714692 374.736594 16.0980693L421.371993 79.5544682z"/>
      <path stroke="#0A0B09" stroke-width=".7" d="M421.371993 79.5544682C419.346193 79.1204682 417.724993 78.5856682 416.501393 77.9668682 415.680993 76.2406683 417.540193 75.7044683 422.074793 76.3414683L421.371993 79.5544682zM426.746593 80.3258682L426.746593 82.2326682 426.746593 80.3258682zM426.746593 82.2326682L425.090393 80.1592682 426.746593 82.2326682z"/>
      <polygon stroke="#0A0B09" stroke-width=".7" points="426.747 80.326 426.562 80.326 425.09 80.159"/>
      <path stroke="#0A0B09" stroke-width=".7" d="M425.090393 80.1592682L421.371993 79.5544682 425.090393 80.1592682zM269.427195 85.8824681L346.763194 85.8824681C368.107594 85.9342681 389.234993 86.3360681 410.139793 87.0556681L410.475793 87.0556681 269.427195 85.8824681zM412.518393 89.900468L412.333593 89.900468C389.919593 89.179468 368.055794 88.780468 346.763194 88.730068L268.087395 88.780468 412.518393 89.900468zM412.518393 89.900468L410.475793 87.0556681 412.518393 89.900468zM410.475793 87.0556681L407.762593 84.1926681 410.475793 87.0556681zM426.746593 77.1464682C427.030793 77.1772682 427.299593 77.2962682 427.516593 77.5118682 427.768593 77.7806682 427.900193 78.0970682 427.900193 78.4666682L427.900193 78.9860682C427.900193 79.3542682 427.768593 79.6734682 427.516593 79.9226682 427.299593 80.1424682 427.030793 80.2740682 426.746593 80.3258682L426.746593 77.1464682z"/>
      <polygon stroke="#0A0B09" stroke-width=".7" points="426.747 77.146 426.562 77.13 424.553 76.76"/>
      <path stroke="#0A0B09" stroke-width=".7" d="M422.074793 76.3414683L424.552793 76.7600682 422.074793 76.3414683zM395.124793 74.2148683L403.411393 84.1926681 395.124793 74.2148683zM384.495993 68.5574684L391.927193 70.3480684 384.495993 68.5574684zM395.124793 74.2148683L384.495993 71.3350683 395.124793 74.2148683z"/>
      <polygon stroke="#0A0B09" stroke-width=".7" points="384.496 68.557 381.13 67.737 381.13 70.432 384.496 71.335"/>
      <polygon stroke="#0A0B09" stroke-width=".7" points="384.496 71.335 384.496 77.463 378.116 77.463"/>
      <path stroke="#0A0B09" stroke-width=".7" d="M391.927193,70.3480684 L395.124793,74.2148683 L391.927193,70.3480684 Z"/>
      <polygon stroke="#0A0B09" stroke-width=".7" points="378.116 62.214 384.496 62.214 384.496 68.557"/>
      <path stroke="#0A0B09" stroke-width=".7" d="M424.552793,76.7600682 L424.552793,62.7992685 C424.552793,62.4968685 424.653593,62.2448685 424.870593,62.0306685 C425.090393,61.8122685 425.340993,61.7100685 425.640593,61.7100685 L425.658793,61.7100685 C425.959793,61.7100685 426.210393,61.8122685 426.427393,62.0306685 C426.645793,62.2448685 426.746593,62.4968685 426.746593,62.7992685 L426.746593,77.1464682 L424.552793,76.7600682 Z"/>
      <polygon stroke="#0A0B09" stroke-width=".7" points="378.116 77.463 375.273 77.463 375.273 62.214 378.116 62.214"/>
      <path stroke="#0A0B09" stroke-width=".7" d="M407.762593 84.1926681L366.683794 34.677469 366.650194 34.643869C360.674994 27.8972691 352.774794 24.5162691 342.913194 24.4980691L285.395595 24.4980691C281.562395 24.5834691 278.717595 25.5368691 276.859795 27.3624691 274.884395 29.1530691 273.947795 31.831269 274.030395 35.395669L274.030395 83.3386681 407.762593 84.1926681zM151.999397 18.9260692L149.956797 15.0424693C149.739797 13.9224693 149.956797 13.1664693 150.625997 12.7646693 167.432997 9.0000694 184.875597 6.10486945 202.936997 4.06226948 222.237396 1.86706952 241.623196.528669545 261.106996.00926955378L286.584195.00926955378C306.620995-.108330444 326.694194 1.13066953 346.779994 3.70946949 360.490194 5.26486946 370.217394 7.66026942 375.957394 10.9054694 377.179594 11.5270694 377.179594 12.7646693 375.957394 14.6070693L374.736594 16.0980693 151.999397 18.9260692zM374.736594 16.0980693C372.677194 18.4066692 370.232794 20.0796692 367.403394 21.1352692 362.583194 21.7204692 355.032994 21.9542692 344.772394 21.8044692L154.543197 24.1158691 374.736594 16.0980693z"/>
      <path stroke="#0A0B09" stroke-width=".7" d="M152.885597 20.7502692L343.600594 18.6250692C353.795394 18.7734692 361.293794 18.5396692 366.080394 17.9530692 368.892994 16.9002693 371.321994 15.2258693 373.379994 12.9158693L152.885597 20.7502692zM451.219992 85.6822681C467.774992 88.543868 485.269392 90.788068 503.680791 92.379868L451.219992 85.6822681zM438.096393 88.627868L503.680791 92.379868 438.096393 88.627868zM503.680791 92.379868L504.132991 92.413468C515.265791 93.366868 526.749991 94.086468 538.567391 94.5722679 546.902991 95.0566679 553.046191 95.7090679 556.998391 96.5308679 558.05259 96.7632679 559.08859 97.0656679 560.09379 97.4338679 560.44519 97.5514679 560.78119 97.6998679 561.09899 97.9028679 562.27079 98.6574679 563.24239 99.6108679 564.02919 100.765868L503.680791 92.379868z"/>
      <polygon stroke="#0A0B09" stroke-width=".7" points="431.684 83.441 431.77 78.633 451.22 85.682"/>
      <path stroke="#0A0B09" stroke-width=".7" d="M451.219992 85.6822681C448.608992 86.8708681 444.239592 87.8396681 438.096393 88.627868L451.219992 85.6822681zM438.096393 88.627868L431.618593 88.2610681 438.096393 88.627868zM431.618593 88.2610681L431.684393 83.4408681 431.618593 88.2610681zM173.793197 182.104466L184.858797 182.104466 173.793197 182.104466zM184.858797 182.104466C185.477597 184.029466 185.779997 186.072066 185.779997 188.265866 185.779997 190.356066 185.494397 192.314666 184.925997 194.175266L184.858797 182.104466zM173.793197 182.104466C175.216997 183.861466 175.919797 185.902666 175.919797 188.249066 175.919797 190.491866 175.267397 192.465866 173.961197 194.175266L173.793197 182.104466zM182.314997 186.524266C182.767197 186.991866 183.000997 187.543466 183.000997 188.197266 183.000997 188.849666 182.767197 189.402666 182.314997 189.854866 181.844597 190.322466 181.292997 190.557666 180.640597 190.557666 179.986797 190.557666 179.435197 190.322466 178.982997 189.854866 178.513997 189.402666 178.280197 188.849666 178.280197 188.197266 178.280197 187.543466 178.513997 186.991866 178.982997 186.524266 179.435197 186.072066 179.986797 185.835466 180.640597 185.835466 181.292997 185.835466 181.844597 186.072066 182.314997 186.524266zM160.000397 180.448266C161.741997 179.073467 163.766397 178.387467 166.060997 178.387467 168.337397 178.387467 170.344997 179.056667 172.069797 180.411866L160.000397 180.448266zM172.069797 184.816266C172.654997 185.835466 172.957397 186.975066 172.957397 188.249066 172.957397 189.520266 172.654997 190.658466 172.069797 191.679066 171.768797 192.197066 171.400597 192.684266 170.946997 193.135066 170.528397 193.553666 170.094397 193.888266 169.642197 194.175266 168.587997 194.824866 167.382597 195.162266 166.060997 195.162266 164.737997 195.162266 163.532597 194.824866 162.460197 194.175266 162.009397 193.888266 161.590797 193.553666 161.172197 193.135066 160.686397 192.649266 160.301397 192.148066 160.000397 191.596466 159.447397 190.591266 159.163197 189.468466 159.163197 188.249066 159.163197 187.024066 159.447397 185.902666 160.000397 184.900266 160.301397 184.347266 160.686397 183.846066 161.172197 183.360266 161.691597 182.840866 162.259997 182.422266 162.863397 182.104466 163.816797 181.601866 164.887797 181.349866 166.060997 181.349866 167.231397 181.349866 168.285597 181.601866 169.240397 182.104466 169.859197 182.422266 170.428997 182.840866 170.946997 183.360266 171.400597 183.811066 171.768797 184.298266 172.069797 184.816266zM164.051997 171.591867C164.504197 171.139667 165.055797 170.904467 165.708197 170.904467 166.360597 170.904467 166.913597 171.139667 167.382597 171.591867 167.834797 172.059467 168.068597 172.611067 168.068597 173.264867 168.068597 173.918667 167.834797 174.470267 167.382597 174.923867 166.913597 175.391467 166.360597 175.625267 165.708197 175.625267 165.055797 175.625267 164.504197 175.391467 164.051997 174.923867 163.582997 174.470267 163.349197 173.918667 163.349197 173.264867 163.349197 172.611067 163.582997 172.059467 164.051997 171.591867zM160.000397 169.433067C161.891797 168.829667 163.917597 168.527267 166.060997 168.527267 168.186197 168.527267 170.178397 168.829667 172.069797 169.417667L160.000397 169.433067zM160.000397 207.097266C157.071597 206.176066 154.426997 204.535266 152.100197 202.208466 149.722997 199.832666 148.082197 197.151666 147.160997 194.175266L160.000397 207.097266z"/>
      <polygon stroke="#0A0B09" stroke-width=".7" points="160 196.048 159.079 195.228 158.159 194.175"/>
      <path stroke="#0A0B09" stroke-width=".7" d="M114.819598 190.423266L114.837798 204.217466C114.837798 204.636066 114.686598 204.987466 114.402398 205.271666 114.099998 205.572666 113.748598 205.725266 113.331398 205.725266 112.912798 205.725266 112.559998 205.572666 112.275798 205.271666 111.974798 204.987466 111.823598 204.636066 111.823598 204.217466L111.823598 189.086266 114.819598 190.423266zM121.599798 188.314866L114.837798 188.849666 121.599798 188.314866zM114.802798 183.377066L121.902198 182.772266 114.802798 183.377066zM122.369798 179.611066L114.802798 178.422467 122.369798 179.611066zM121.902198 182.772266C122.018398 181.702666 122.186398 180.647066 122.369798 179.611066L121.902198 182.772266zM210.470396 190.542266C209.967796 201.857066 205.648796 211.581466 197.513397 219.718266L197.077997 220.153666C188.491797 228.538266 178.145797 232.739666 166.060997 232.739666 153.773197 232.739666 143.294198 228.406666 134.622598 219.718266 126.337398 211.431666 122.001598 201.505666 121.616598 189.938866L121.599798 188.314866 210.470396 190.542266zM121.599798 188.314866L121.599798 188.281266C121.599798 186.406666 121.700598 184.564266 121.902198 182.772266L121.599798 188.314866zM114.802798 178.422467L114.802798 185.920866 114.802798 178.422467zM114.837798 188.849666L114.819598 190.423266 114.837798 188.849666zM114.819598 190.423266L114.802798 188.849666 114.819598 190.423266zM114.802798 185.920866L114.802798 188.849666 114.802798 185.920866zM114.802798 188.849666L111.823598 189.086266 114.802798 188.849666zM147.244997 182.104466C148.164797 179.207867 149.788797 176.615067 152.100197 174.303667 154.426997 171.976867 157.071597 170.354267 160.000397 169.433067L147.244997 182.104466z"/>
      <path stroke="#0A0B09" stroke-width=".7" d="M149.321197,171.541467 C153.939797,166.938267 159.514597,164.628267 166.060997,164.628267 C172.589197,164.628267 178.162597,166.938267 182.799397,171.541467 C187.402597,176.144667 189.695797,181.736266 189.695797,188.281266 C189.695797,194.809466 187.402597,200.384266 182.799397,204.987466 C179.668997,208.116466 176.087797,210.192666 172.069797,211.196466 C170.161597,211.682266 168.152597,211.917466 166.060997,211.917466 C163.934397,211.917466 161.925397,211.682266 160.000397,211.196466 C156.000597,210.175866 152.451597,208.116466 149.321197,204.987466 C144.716598,200.384266 142.407998,194.809466 142.407998,188.281266 C142.407998,181.736266 144.716598,176.144667 149.321197,171.541467 Z"/>
      <path stroke="#0A0B09" stroke-width=".7" d="M145.153398 167.355467C150.926997 161.597267 157.890597 158.717467 166.060997 158.717467 174.229997 158.717467 181.208997 161.597267 186.983997 167.355467 192.743597 173.130467 195.621997 180.095466 195.621997 188.281266 195.621997 196.450266 192.743597 203.413866 186.983997 209.170666 181.208997 214.947066 174.229997 217.843666 166.060997 217.843666 157.890597 217.843666 150.926997 214.947066 145.153398 209.170666 139.376998 203.413866 136.498598 196.450266 136.498598 188.281266 136.498598 180.095466 139.376998 173.130467 145.153398 167.355467zM158.159397 194.175266L147.160997 194.175266 158.159397 194.175266zM147.244997 182.104466L158.327397 182.104466 147.244997 182.104466z"/>
      <path stroke="#0A0B09" stroke-width=".7" d="M158.159397 194.175266C156.853197 192.465866 156.200797 190.491866 156.200797 188.249066 156.200797 185.902666 156.903597 183.861466 158.327397 182.104466L158.159397 194.175266zM147.160997 194.175266C146.607998 192.314666 146.323798 190.357466 146.323798 188.265866 146.323798 186.072066 146.626198 184.029466 147.244997 182.104466L147.160997 194.175266zM151.128597 185.835466C151.780997 185.835466 152.333997 186.072066 152.802997 186.524266 153.255197 186.991866 153.488997 187.543466 153.488997 188.197266 153.488997 188.849666 153.255197 189.402666 152.802997 189.854866 152.333997 190.322466 151.780997 190.557666 151.128597 190.557666 150.474797 190.557666 149.923197 190.322466 149.470997 189.854866 149.003397 189.402666 148.768197 188.849666 148.768197 188.197266 148.768197 187.543466 149.003397 186.991866 149.470997 186.524266 149.923197 186.072066 150.474797 185.835466 151.128597 185.835466zM158.327397 182.104466L159.079197 181.267266C159.381597 180.964866 159.682597 180.697466 160.000397 180.448266L158.327397 182.104466zM145.822598 148.540867L153.036797 147.972467 145.822598 148.540867zM122.369798 179.611066C123.976998 170.989867 128.060798 163.389267 134.622598 156.827467 135.710398 155.738267 136.816398 154.734467 137.971398 153.779667 140.464798 151.720267 143.077198 149.963267 145.822598 148.540867L122.369798 179.611066z"/>
      <path stroke="#0A0B09" stroke-width=".7" d="M114.802798 178.422467C114.921798 170.470467 116.962998 164.127067 120.964198 159.406267 121.818198 158.451467 122.737998 157.563867 123.743198 156.760267 128.043998 153.312067 132.882398 150.985267 138.221998 149.779867 140.482998 149.260467 143.026798 148.858667 145.822598 148.540867L114.802798 178.422467zM179.668997 148.172667C182.380797 148.374267 184.925997 148.675267 187.303197 149.077067L179.668997 148.172667zM179.668997 148.172667C185.679197 150.164867 191.102797 153.579467 195.939797 158.401067 204.175997 166.652667 208.294796 176.615067 208.294796 188.281266L208.261196 190.105466C207.841196 201.001666 203.740597 210.342466 195.939797 218.144666 189.529197 224.556666 182.096597 228.472467 173.626597 229.896266 171.198997 230.312066 168.671997 230.515066 166.060997 230.515066 154.393397 230.515066 144.432398 226.396266 136.197598 218.144666 127.944598 209.908466 123.827198 199.950266 123.827198 188.281266 123.827198 184.162466 124.345198 180.262066 125.365798 176.561867 127.257198 169.784467 130.856598 163.740667 136.197598 158.401067 141.185798 153.412867 146.792798 149.932467 153.036797 147.972467L179.668997 148.172667z"/>
      <path stroke="#0A0B09" stroke-width=".7" d="M220.263396,190.473666 L229.587396,186.272266 C226.791596,169.181067 220.865396,156.946467 211.825596,149.561467 C205.179797,143.537267 194.618197,139.853867 180.137997,138.497267 C167.599597,137.307267 155.864797,137.307267 144.934998,138.497267 C131.626598,140.154867 121.683798,144.524267 115.105198,151.570467 C109.764198,156.760267 106.566598,164.646467 105.545998,175.209467 L114.802798,178.422467 L220.263396,190.473666 Z"/>
      <path stroke="#0A0B09" stroke-width=".7" d="M220.263396,190.473666 C218.404196,177.970267 214.755796,167.859467 209.315396,160.124467 C204.929197,154.516067 197.597397,150.834067 187.303197,149.077067 L220.263396,190.473666 Z"/>
      <path stroke="#0A0B09" stroke-width=".7" d="M187.303197 149.077067C190.951597 151.086067 194.350797 153.664867 197.513397 156.827467 204.293597 163.623067 208.427796 171.526067 209.900596 180.529466 210.319196 183.025666 210.519396 185.618466 210.519396 188.281266L210.470396 190.542266 187.303197 149.077067zM153.036797 147.972467C157.840197 147.740067 163.246997 147.703667 169.257197 147.887067 172.957397 147.839467 176.439197 147.922067 179.668997 148.172667L153.036797 147.972467z"/>
      <polygon stroke="#0A0B09" stroke-width=".7" points="163.716 29.537 150.14 56.354 159.866 56.354 173.776 29.873"/>
      <path stroke="#0A0B09" stroke-width=".7" d="M160.903397 37.9730689C160.903397 38.1242689 160.955197 38.2446689 161.072797 38.3426689 161.172197 38.4602689 161.289797 38.5092689 161.439597 38.5092689L167.500197 38.5092689C167.651397 38.5092689 167.767597 38.4602689 167.885197 38.3426689 167.985997 38.2446689 168.036397 38.1242689 168.036397 37.9730689L168.036397 37.9576689C168.036397 37.8064689 167.985997 37.6888689 167.885197 37.5712689 167.767597 37.4732689 167.651397 37.4242689 167.500197 37.4242689L161.439597 37.4242689C161.289797 37.4242689 161.172197 37.4732689 161.072797 37.5712689 160.955197 37.6888689 160.903397 37.8064689 160.903397 37.9576689L160.903397 37.9730689zM169.425197 34.711069C169.306197 34.610269 169.189997 34.562669 169.040197 34.562669L162.979597 34.562669C162.828397 34.562669 162.712197 34.610269 162.612797 34.711069 162.493797 34.827269 162.444797 34.944869 162.444797 35.096069L162.444797 35.111469C162.444797 35.262669 162.493797 35.381669 162.612797 35.4810689 162.712197 35.5986689 162.828397 35.6476689 162.979597 35.6476689L169.040197 35.6476689C169.189997 35.6476689 169.306197 35.5986689 169.425197 35.4810689 169.525997 35.381669 169.574997 35.262669 169.574997 35.111469L169.574997 35.096069C169.574997 34.944869 169.525997 34.827269 169.425197 34.711069zM108.492998 81.5648682L109.479998 80.1242682 108.492998 81.5648682z"/>
      <polygon stroke="#0A0B09" stroke-width=".7" points="109.48 80.124 109.53 80.058 150.693 20.851"/>
      <path stroke="#0A0B09" stroke-width=".7" d="M153.773197 51.5992687L153.773197 51.6174687C153.773197 51.7672687 153.823597 51.8848687 153.939797 51.9842687 154.040597 52.1018687 154.158197 52.1522687 154.309397 52.1522687L160.368597 52.1522687C160.519797 52.1522687 160.637397 52.1018687 160.753597 51.9842687 160.854397 51.8848687 160.903397 51.7672687 160.903397 51.6174687L160.903397 51.5992687C160.903397 51.4494687 160.854397 51.3318687 160.753597 51.2156687 160.637397 51.1134687 160.519797 51.0644687 160.368597 51.0644687L154.309397 51.0644687C154.158197 51.0644687 154.040597 51.1134687 153.939797 51.2156687 153.823597 51.3318687 153.773197 51.4494687 153.773197 51.5992687zM155.313197 48.8566687C155.313197 49.0064687 155.363597 49.1240687 155.479797 49.2220687 155.581997 49.3396687 155.698197 49.3900687 155.849397 49.3900687L161.908597 49.3900687C162.059797 49.3900687 162.175997 49.3396687 162.293597 49.2220687 162.394397 49.1240687 162.444797 49.0064687 162.444797 48.8566687L162.444797 48.8398687C162.444797 48.6900687 162.394397 48.5696687 162.293597 48.4520687 162.175997 48.3526687 162.059797 48.3036687 161.908597 48.3036687L155.849397 48.3036687C155.698197 48.3036687 155.581997 48.3526687 155.479797 48.4520687 155.363597 48.5696687 155.313197 48.6900687 155.313197 48.8398687L155.313197 48.8566687zM156.886797 45.6072688C156.769197 45.7248688 156.718797 45.8424688 156.718797 45.9936688L156.718797 46.0090688C156.718797 46.1602688 156.769197 46.2778688 156.886797 46.3786688 156.987597 46.4934688 157.105197 46.5452688 157.254997 46.5452688L163.315597 46.5452688C163.465397 46.5452688 163.582997 46.4934688 163.700597 46.3786688 163.801397 46.2778688 163.850397 46.1602688 163.850397 46.0090688L163.850397 45.9936688C163.850397 45.8424688 163.801397 45.7248688 163.700597 45.6072688 163.582997 45.5064688 163.465397 45.4574688 163.315597 45.4574688L157.254997 45.4574688C157.105197 45.4574688 156.987597 45.5064688 156.886797 45.6072688zM158.075397 43.6962688C158.176197 43.8166688 158.293797 43.8656688 158.443597 43.8656688L164.504197 43.8656688C164.653997 43.8656688 164.771597 43.8166688 164.887797 43.6962688 164.988597 43.6010688 165.038997 43.4834688 165.038997 43.3294688L165.038997 43.3140688C165.038997 43.1628688 164.988597 43.0452688 164.887797 42.9276688 164.771597 42.8296688 164.653997 42.7778688 164.504197 42.7778688L158.443597 42.7778688C158.293797 42.7778688 158.176197 42.8296688 158.075397 42.9276688 157.957797 43.0452688 157.907397 43.1628688 157.907397 43.3140688L157.907397 43.3294688C157.907397 43.4834688 157.957797 43.6010688 158.075397 43.6962688zM159.331197 41.1048689C159.430597 41.2224689 159.548197 41.2742689 159.699397 41.2742689L165.758597 41.2742689C165.909797 41.2742689 166.025997 41.2224689 166.143597 41.1048689 166.244397 41.0026689 166.294797 40.8878689 166.294797 40.7380689L166.294797 40.7184689C166.294797 40.5686689 166.244397 40.4538689 166.143597 40.3362689 166.025997 40.2340689 165.909797 40.1822689 165.758597 40.1822689L159.699397 40.1822689C159.548197 40.1822689 159.430597 40.2340689 159.331197 40.3362689 159.213597 40.4538689 159.163197 40.5686689 159.163197 40.7184689L159.163197 40.7380689C159.163197 40.8878689 159.213597 41.0026689 159.331197 41.1048689zM109.479998 80.1242682L109.713798 80.1746682C113.447598 81.4304682 117.783398 81.8322682 122.687598 81.3478682 126.270198 80.8942682 129.719798 78.3490682 133.048998 73.6982683L133.033598 73.7304683C142.238598 59.7514685 149.304397 47.5168687 154.242197 36.9860689 155.681397 33.925669 155.915197 31.429469 154.944997 29.5044691L150.693197 20.8510692 109.479998 80.1242682zM154.543197 24.1158691L152.885597 20.7502692 154.543197 24.1158691z"/>
      <path stroke="#0A0B09" stroke-width=".7" d="M108.492998 81.5648682L108.492998 81.5816682C108.627398 81.8322682 108.827598 82.0002682 109.078198 82.0842682 113.062598 83.4408681 117.665798 83.8580681 122.905998 83.3386681 127.007998 82.9214681 130.940598 80.1074682 134.689798 74.8686683L134.706598 74.8350683C143.980198 60.7720685 151.094997 48.4380687 156.066397 37.8400689 157.840197 34.058669 158.058597 30.977269 156.735597 28.5846691L154.543197 24.1158691 108.492998 81.5648682zM152.885597 20.7502692L151.999397 18.9260692 152.885597 20.7502692zM150.693197 20.8510692L151.999397 18.9260692 150.693197 20.8510692zM268.087395 88.780468C268.406595 87.6240681 268.857395 86.6692681 269.427195 85.8824681L268.087395 88.780468zM277.377795 83.3722681L277.377795 48.1342687 277.377795 83.3722681zM274.030395 83.3386681C272.054995 83.5402681 270.514995 84.3914681 269.427195 85.8824681L274.030395 83.3386681zM274.030395 83.3386681L277.377795 83.3722681 274.030395 83.3386681zM277.377795 48.1342687C280.676195 48.7712687 282.584395 47.6008687 283.070195 44.6202688L283.070195 40.6008689C283.890595 35.8492689 286.686395 33.388069 291.439395 33.220069L306.371795 33.220069C309.971195 33.236869 312.565395 31.447669 314.189395 27.8482691L277.377795 48.1342687zM254.846196 80.1592682L169.542797 83.5066681C165.222397 83.4212681 162.343997 82.1990682 160.903397 79.8064682 159.564997 76.5752682 159.564997 73.5792683 160.903397 70.7848683L178.012797 35.7470689C180.322797 31.346869 184.105597 29.1698691 189.362597 29.1879559L253.707996 29.1879559C257.877196 29.2874691 260.187196 30.977269 260.621196 34.275669L260.621196 74.3646683C260.807396 77.7638682 258.882396 79.7056682 254.846196 80.1592682z"/>
      <path stroke="#0A0B09" stroke-width=".7" d="M262.949396 34.092269C262.530796 29.4050691 259.466196 26.9928691 253.758396 26.8430691L189.362597 26.8430691C183.133997 26.8430691 178.648397 29.4540691 175.919797 34.692869L158.794997 69.7628684C157.138797 73.1620683 157.120597 76.8440682 158.761397 80.7780682L158.828597 80.8942682C160.519797 84.1086681 164.100997 85.7662681 169.559597 85.8502681L255.014196 82.5014681C260.688396 81.8826682 263.351196 79.1204682 262.964796 74.2148683L262.964796 34.208469 262.949396 34.092269zM277.377795 48.1342687L277.377795 35.363469C277.310595 32.920469 277.915395 31.062669 279.169795 29.806869 280.558595 28.5510691 282.651595 27.8972691 285.464195 27.8482691L314.189395 27.8482691 277.377795 48.1342687zM25.6325996 161.884267L25.6325996 154.516067 25.6325996 161.884267zM32.1103995 161.884267L30.7705995 157.279667 32.1103995 161.884267zM81.4085986 185.920866L40.8141993 185.920866 81.4085986 185.920866z"/>
      <polygon stroke="#0A0B09" stroke-width=".7" points="111.824 189.086 25.08 195.829 25.08 191.645"/>
      <path stroke="#0A0B09" stroke-width=".7" d="M81.4085986,185.920866 L25.0627996,191.393466 L17.3627997,192.131266 L17.2955997,192.131266 C10.5503998,192.449066 5.9793999,189.520266 3.58539994,183.325266 C3.48599994,183.074666 3.43559994,182.805866 3.43559994,182.556666 L81.4085986,185.920866 Z"/>
      <path stroke="#0A0B09" stroke-width=".7" d="M7.23519988 181.636866C7.21839988 181.652266 7.21839988 181.652266 7.20159988 181.669066 6.39799989 182.321466 5.46139991 182.657466 4.40579992 182.657466L3.43559994 182.556666 7.23519988 181.636866zM7.23519988 181.636866L7.33599988 181.869266C9.04399985 186.272266 12.2919998 188.348466 17.0939997 188.111866L40.8141993 185.920866 7.23519988 181.636866z"/>
      <path stroke="#0A0B09" stroke-width=".7" d="M3.43559994 182.556666C2.63199996 182.390066 1.91239997 181.985466 1.29359998 181.366666.438199993 180.514066.00419999993 179.475266.00419999993 178.253067.00419999993 177.032267.438199993 175.993467 1.29359998 175.140867 2.14619996 174.286867 3.18359995 173.852867 4.40579992 173.852867 5.6279999 173.852867 6.66679989 174.286867 7.51939987 175.140867 8.37339986 175.993467 8.80879985 177.032267 8.80879985 178.253067 8.80879985 179.475266 8.37339986 180.514066 7.51939987 181.366666 7.46899987 181.417066 7.43679987 181.452066 7.38639987 181.501066 7.36819987 181.516466 7.35279987 181.516466 7.35279987 181.536066L7.23519988 181.636866 3.43559994 182.556666zM26.3689996 180.831866L21.3793996 180.831866C19.4543997 180.529466 18.4505997 179.559266 18.3665997 177.901667L18.3665997 171.859267C18.5177997 170.169467 19.5565997 169.265067 21.4633996 169.147467L26.6195995 169.147467 26.3689996 180.831866zM39.4925993 168.329867L32.1103995 168.329867 39.4925993 168.329867z"/>
      <polygon stroke="#0A0B09" stroke-width=".7" points="40.814 185.921 37.65 185.921 37.65 181.921"/>
      <path stroke="#0A0B09" stroke-width=".7" d="M37.6501994 181.921066L29.7667995 181.921066C28.2099995 181.904266 27.0717995 181.552866 26.3689996 180.831866L37.6501994 181.921066zM26.3689996 180.831866C25.9503996 180.411866 25.6983996 179.877066 25.5821996 179.224667L25.5821996 172.027267C25.6479996 170.722467 26.0007996 169.766267 26.6195995 169.147467L26.3689996 180.831866zM32.1103995 166.067467L27.6737995 166.067467 32.1103995 166.067467zM25.6325996 161.884267L32.1103995 161.884267 25.6325996 161.884267z"/>
      <polygon stroke="#0A0B09" stroke-width=".7" points="27.674 166.067 25.633 166.067 25.633 161.884"/>
      <path stroke="#0A0B09" stroke-width=".7" d="M27.6737995,168.511867 L27.6737995,166.067467 L27.6737995,168.511867 Z"/>
      <polygon stroke="#0A0B09" stroke-width=".7" points="32.11 168.33 28.595 168.33 27.674 168.512"/>
      <path stroke="#0A0B09" stroke-width=".7" d="M26.6195995,169.147467 C26.9051995,168.863267 27.2551995,168.661667 27.6737995,168.511867 L26.6195995,169.147467 Z"/>
      <polygon stroke="#0A0B09" stroke-width=".7" points="39.241 166.503 33.449 166.503 32.11 161.884"/>
      <path stroke="#0A0B09" stroke-width=".7" d="M32.1103995 166.067467L32.1103995 161.884267 32.1103995 166.067467zM32.1103995 168.329867L32.1103995 166.067467 32.1103995 168.329867zM39.4925993 168.329867L39.2405993 166.502867 39.4925993 168.329867zM37.6501994 181.921066L41.8361993 181.921066C46.4547992 181.334466 48.6989992 179.644666 48.5491992 176.882467L48.5491992 173.199067C48.1795992 169.816667 46.0543992 168.192667 42.1707993 168.329867L39.4925993 168.329867 37.6501994 181.921066zM20.2411997 102.455668L30.7705995 157.279667 20.2411997 102.455668zM30.7705995 157.279667C28.6439995 156.777067 26.9205995 155.855867 25.6325996 154.516067L30.7705995 157.279667zM20.2411997 102.455668C20.6107996 101.736068 21.0783996 101.167668 21.6649996 100.782668L32.0935995 100.063068 20.2411997 102.455668zM25.6325996 154.516067C23.9581996 152.794067 22.9865996 150.349667 22.7191996 147.219267L19.3717997 107.161068C19.3885997 105.167468 19.6727997 103.612068 20.2411997 102.455668L25.6325996 154.516067zM32.0935995 100.063068C33.1645994 97.9028679 36.1451994 96.7632679 41.0157993 96.6120679L80.7393986 94.2880679 32.0935995 100.063068zM32.0935995 100.063068L41.0157993 99.4582679C115.155598 94.9236679 190.850797 91.356468 268.087395 88.780468L32.0935995 100.063068zM39.2405993 166.502867L34.9565994 134.647267C32.8299994 120.669667 31.7757995 109.437468 31.7757995 100.932468 31.8583995 100.631468 31.9591995 100.347268 32.0935995 100.063068L39.2405993 166.502867zM80.7393986 94.2880679L103.520198 88.711868 80.7393986 94.2880679zM538.483391 180.529466L542.385191 179.007667 538.483391 180.529466zM564.02919 100.765868L412.518393 89.900468 564.02919 100.765868zM564.06279 168.329867L568.54699 157.782267 564.06279 168.329867zM576.26379 138.245267L576.26379 165.899467 576.26379 138.245267zM565.98499 136.486867C565.26819 146.666267 564.29519 157.279667 563.07299 168.329867L565.98499 136.486867zM124.780598 91.944468L80.7393986 94.2880679 124.780598 91.944468zM114.802798 185.920866L81.4085986 185.920866 114.802798 185.920866zM124.780598 91.944468C116.258798 91.457268 109.162198 90.369468 103.520198 88.711868L124.780598 91.944468zM103.520198 88.711868L108.492998 81.5648682 103.520198 88.711868zM220.547596 192.516266L210.470396 190.542266 220.547596 192.516266zM269.427195 85.8824681C220.597996 87.5064681 172.370797 89.532268 124.780598 91.944468L269.427195 85.8824681zM220.547596 192.516266L220.263396 190.473666 220.547596 192.516266zM303.860195 102.623668C303.860195 102.171468 303.692195 101.772468 303.375795 101.435068 303.039795 101.115868 302.637995 100.950668 302.185795 100.950668L274.013595 100.950668C273.561395 100.950668 273.159595 101.115868 272.841795 101.435068 272.507195 101.772468 272.339195 102.171468 272.339195 102.623668L272.339195 103.795468C272.339195 104.247668 272.507195 104.648068 272.841795 104.968668 273.159595 105.304668 273.561395 105.469868 274.013595 105.469868L302.185795 105.469868C302.637995 105.469868 303.039795 105.304668 303.375795 104.968668 303.692195 104.648068 303.860195 104.247668 303.860195 103.795468L303.860195 102.623668zM184.925997 194.175266C184.021597 197.153066 182.380797 199.832666 180.021797 202.208466 177.661397 204.552066 175.016797 206.191466 172.069797 207.112666L184.925997 194.175266zM172.069797 196.100266L172.069797 207.112666 172.069797 196.100266zM160.000397 196.048466L160.000397 207.097266 160.000397 196.048466zM172.069797 207.112666C170.178397 207.699266 168.186197 207.983466 166.060997 207.983466 163.917597 207.983466 161.891797 207.682466 160.000397 207.097266L172.069797 207.112666zM172.069797 196.100266C170.344997 197.437266 168.337397 198.106466 166.060997 198.106466 163.766397 198.106466 161.741997 197.420466 160.000397 196.048466L172.069797 196.100266z"/>
      <polygon stroke="#0A0B09" stroke-width=".7" points="173.961 194.175 173.04 195.228 172.07 196.1"/>
      <path stroke="#0A0B09" stroke-width=".7" d="M168.068597 203.028866C168.068597 203.679866 167.834797 204.232866 167.382597 204.685066 166.913597 205.155466 166.360597 205.387866 165.708197 205.387866 165.055797 205.387866 164.504197 205.155466 164.051997 204.685066 163.582997 204.232866 163.349197 203.679866 163.349197 203.028866 163.349197 202.375066 163.582997 201.822066 164.051997 201.354466 164.504197 200.902266 165.055797 200.668466 165.708197 200.668466 166.360597 200.668466 166.913597 200.902266 167.382597 201.354466 167.834797 201.822066 168.068597 202.375066 168.068597 203.028866zM172.069797 169.417667C175.016797 170.336067 177.661397 171.958667 180.021797 174.303667 182.314997 176.615067 183.937597 179.207867 184.858797 182.104466L172.069797 169.417667zM172.069797 169.417667L172.069797 180.411866 172.069797 169.417667zM160.000397 169.433067L160.000397 180.448266 160.000397 169.433067zM172.069797 180.411866L173.793197 182.104466 172.069797 180.411866zM184.925997 194.175266L173.961197 194.175266 184.925997 194.175266z"/>
      <line x1="403.411" x2="277.378" y1="84.193" y2="83.372" stroke="#0A0B09" stroke-width=".7"/>
    </g>
  </g>
</svg>
