<svg xmlns="http://www.w3.org/2000/svg" viewBox="0 0 855 855">
  <path fill="#F7EED7" fill-rule="evenodd" d="M430.468249,854.551186 C177.482486,856.387797 3.50983051,675.068701 0.448813559,424.531751 C-1.38779661,180.72904 189.731412,2.47096045 430.468249,0.628462595 C677.331977,-0.590056497 852.52904,189.304746 854.371576,431.878192 C855.590056,671.39548 666.919661,853.32678 430.468249,854.551186 Z M430.468249,823.921582 C655.282938,825.763051 820.062825,653.019661 823.736045,430.653785 C826.801921,204.007345 656.507345,33.100565 430.468249,31.2573468 C205.046215,30.039548 31.0784181,199.104859 31.0784181,424.531751 C31.0784181,660.366102 195.858305,822.697175 430.468249,823.921582 Z M254.051638,757.764746 C396.165424,668.329605 519.90339,590.536045 626.489944,524.991412 C680.397853,491.912994 726.337401,417.792655 647.319435,381.65322 C605.665311,362.048136 560.333107,365.726215 516.842373,373.689718 C497.237288,377.362938 421.280339,393.902147 419.443729,359.599322 C418.219322,342.44791 437.207345,320.394011 475.800452,292.21322 C505.200791,271.388588 573.199096,225.444181 680.397853,155.001921 C754.518192,237.085763 791.882034,326.520904 793.111299,423.307345 C794.335706,624.83887 626.489944,794.521243 425.570621,794.521243 C370.438305,794.521243 313.469379,782.267458 254.051638,757.764746 Z M595.860339,94.9719774 C464.15887,179.504633 339.808701,256.685989 223.422034,327.745311 C168.901921,361.435932 123.574576,435.556271 202.597401,471.083503 C244.251525,490.688588 289.57887,487.622712 333.681808,479.047006 C352.674689,475.985989 429.243842,459.44678 431.692655,493.137401 C432.309718,517.640113 345.32339,586.245763 170.74339,697.734802 C96.0108475,618.099774 58.6421469,528.664633 58.0299435,429.429379 C54.3518644,226.673446 221.585424,58.8276836 424.346215,56.9910734 C477.024859,56.9910734 534.605989,69.8522034 595.860339,94.9719774 L595.860339,94.9719774 Z" opacity=".252"/>
</svg>
