<svg xmlns="http://www.w3.org/2000/svg" viewBox="0 0 679 238"><g fill="none" stroke="#6D2838" stroke-width=".5" opacity=".75"><path fill="#BB919A" d="M124.318 229.758V8.638h-48.96l-72.64 47.68 26.88 41.92 35.84-24v155.52h58.88zm120.96 5.76c12.373 0 23.84-2.027 34.4-6.08 10.56-4.053 19.787-10.72 27.68-20 7.893-9.28 14.08-21.547 18.56-36.8 4.48-15.253 6.72-34.08 6.72-56.48 0-17.707-1.547-33.6-4.64-47.68-3.093-14.08-8.053-25.973-14.88-35.68s-15.573-17.173-26.24-22.4c-10.667-5.227-23.573-7.84-38.72-7.84-12.587 0-23.947 1.813-34.08 5.44-10.133 3.627-18.773 8.8-25.92 15.52-7.147 6.72-12.64 14.933-16.48 24.64s-5.76 20.64-5.76 32.8c0 11.52 1.653 21.707 4.96 30.56 3.307 8.853 7.947 16.267 13.92 22.24 5.973 5.973 13.12 10.507 21.44 13.6 8.32 3.093 17.387 4.64 27.2 4.64 9.6 0 17.92-1.333 24.96-4 7.04-2.667 13.12-6.453 18.24-11.36 0 17.493-2.347 30.507-7.04 39.04-4.693 8.533-12.48 12.8-23.36 12.8-13.227 0-20.8-6.4-22.72-19.2h0-54.4c1.707 21.12 9.173 37.44 22.4 48.96 13.227 11.52 31.147 17.28 53.76 17.28zm2.24-126.4c-9.6 0-16.373-2.827-20.32-8.48-3.947-5.653-5.92-12.747-5.92-21.28 0-10.667 2.613-18.56 7.84-23.68 5.227-5.12 11.787-7.68 19.68-7.68 8.96 0 15.573 2.987 19.84 8.96 4.267 5.973 6.4 13.653 6.4 23.04 0 5.76-.853 10.56-2.56 14.4s-3.84 6.827-6.4 8.96c-2.56 2.133-5.493 3.627-8.8 4.48-3.307.853-6.56 1.28-9.76 1.28z"/><path fill="#FFF" d="M425.438 235.518c25.173 0 45.013-6.613 59.52-19.84 14.507-13.227 21.76-32.533 21.76-57.92 0-10.24-1.333-19.84-4-28.8s-6.72-16.8-12.16-23.52c-5.44-6.72-12.48-12.053-21.12-16-8.64-3.947-18.827-5.92-30.56-5.92-6.827 0-13.387.747-19.68 2.24-6.293 1.493-11.893 3.947-16.8 7.36h0l3.52-36.16h87.68V8.638h-133.12l-11.52 131.52h49.92c6.4-7.68 14.933-11.52 25.6-11.52 8.96 0 15.413 2.507 19.36 7.52 3.947 5.013 5.92 12.213 5.92 21.6 0 19.84-8.107 29.76-24.32 29.76-13.867 0-21.76-7.893-23.68-23.68h0-57.6c1.28 23.253 9.12 41.013 23.52 53.28 14.4 12.267 33.653 18.4 57.76 18.4zm180.8-5.76c8.96-33.28 19.147-64.213 30.56-92.8 11.413-28.587 24.693-56.96 39.84-85.12h0v-43.2h-160.64v49.92h96.64c-5.973 11.52-12.053 23.893-18.24 37.12-6.187 13.227-12.213 27.093-18.08 41.6a1042.87 1042.87 0 00-16.96 44.96 725.675 725.675 0 00-14.88 47.52h61.76z"/></g></svg>