<svg width="855" height="799" xmlns="http://www.w3.org/2000/svg"><g style="mix-blend-mode:overlay" stroke="#F7EED7" stroke-width="2" fill="none" fill-rule="evenodd"><path d="M593.726 269.426l-37.536-1.263c-23.813-.398-47.52-.629-71.232-.571H370.065c-23.712-.058-47.41.173-71.232.571l-37.536 1.263h332.429zM131.246 84.62l.293-.172c9.873-7.056 28.977-12.509 57.393-16.464 38.856-5.342 82.757-8.957 131.832-10.91 30.927-1.436 61.176-2.18 90.629-2.237L131.246 84.62zM419.995 54.894h14.985-14.985zM419.995 54.894l-8.602-.057 8.602.057z"/><path d="M411.393 54.837l1.2.173 7.402-.116zM434.98 54.894l8.712-.057-8.712.057zM434.98 54.894l7.45.116 1.262-.173zM646.468 619.754h149.448c-3.61 10.963-12.048 16.473-25.248 16.646h-49.93l-74.27-16.646z"/><path d="M720.739 636.4v145.43c-.927 10.047 4.238 15.212 15.484 15.495h49.935c11.25-.283 16.425-5.448 15.494-15.495V626.008L720.74 636.4zM795.916 580.667h-118.92 118.92zM801.652 626.008c-2.808-1.435-4.531-3.5-5.27-6.312-.288-.864-.413-1.838-.466-2.87v-30.99c-.057-1.838.178-3.508.691-4.938.86-2.352 2.588-4.186 5.045-5.448h10.973l-10.973 50.558zM676.996 567.011c-3.096.687-6.36 1.032-9.753 1.032l-9.932-1.032h19.685zM676.996 580.667v-13.656 13.656zM676.996 567.011c7.815-1.723 14.703-5.568 20.727-11.597 7.627-7.627 11.812-16.699 12.499-27.201l-33.226 38.798zM702.71 522.76l-.11.802.177 1.032zM709.939 518.915c.283 1.949.408 3.96.408 6.024l-.125 3.274-.283-9.298zM702.71 522.76l.067 1.834-.067-1.834zM729 524.651c0 3.85 1.886 5.746 5.735 5.746h49.704c3.84 0 5.741-1.896 5.741-5.746v-16.416c0-3.84-1.9-5.736-5.74-5.736h-49.705c-3.85 0-5.736 1.896-5.736 5.736v16.416z"/><path d="M710.222 528.213h.413c2.236 0 4.132-.461 5.678-1.378 1.546-.859 2.352-1.953 2.352-3.273s-.806-2.41-2.352-3.327c-1.546-.859-3.442-1.32-5.678-1.32h-.696l.283 9.298zM665.98 481.898l1.263-.063 4.483.235zM702.777 524.594v.403c0 9.816-3.451 18.134-10.387 25.08-6.96 6.945-15.331 10.392-25.147 10.392-9.812 0-18.135-3.447-25.085-10.392-3.725-3.672-6.423-7.752-8.146-12.168a37.644 37.644 0 01-1.718-6.14l-.523-4.819.062-4.881c.11-1.373.283-2.693.514-4.018.398-2.006.921-4.013 1.665-5.909.691-1.78 1.546-3.441 2.52-5.112a31.132 31.132 0 012.813-4.008l2.813-3.163c2.76-2.755 5.745-4.934 8.899-6.6 3.168-1.66 6.542-2.755 10.166-3.331l6.02-.456c9.816 0 18.187 3.446 25.147 10.387 6.36 6.375 9.81 14.002 10.32 22.901l.067 1.834z"/><path d="M709.939 518.915c-1.2-9.36-5.28-17.5-12.216-24.446-7.35-7.349-16.013-11.482-25.997-12.399l38.213 36.845zM671.726 482.07l-1.09-19.857c-.413-3.682-.989-6.946-1.675-9.816l-1.032-4.018c-.629-2.006-1.546-3.85-2.698-5.395l-.22-.288c-4.253-5.453-11.943-7.978-23.079-7.464H213.091c-14.808-.629-23.525 3.965-26.175 13.834-1.997 6.772-3.211 16.358-3.547 28.694l-.062 4.31h488.419zM702.777 403.667H692.15h10.627zM692.433 395.118a60.943 60.943 0 00-.22 3.332l-.063 5.217.283-8.549zM814.852 427.144c-2.808 6.538-6.998 12.571-12.446 18.02-11.43 11.423-25.138 17.102-41.266 17.102-16.123 0-29.856-5.679-41.265-17.103-11.43-11.419-17.098-25.137-17.098-41.26v-.236l112.075 23.477zM788.227 497.906h-57.792c-3.845 0-5.741 1.896-5.741 5.745v26.17c0 3.845 1.896 5.74 5.74 5.74h57.793c3.835 0 5.74-1.895 5.74-5.74v-26.17c0-3.85-1.905-5.745-5.74-5.745zM818.471 392.42a60.01 60.01 0 011.037 11.247v.235c0 8.381-1.55 16.124-4.656 23.242l3.62-34.723z"/><path d="M814.852 427.144c1.56-4.133 2.645-8.438 3.389-12.97.58-3.792.864-7.694.864-11.712 0-3.441-.235-6.768-.634-10.041l-3.619 34.723zM801.652 626.008h39.096c9.12-.518 13.536-4.363 13.253-11.53V586.98c.283-7.171-4.133-11.016-13.253-11.53h-28.123l-10.973 50.559zM723.777 84.62l23.242 147.16-23.242-147.16zM751.44 296.229a72.01 72.01 0 0110.04-2.405l-10.04 2.405zM763.089 291.755l-6.84-1.723 6.84 1.723zM748.737 242.45h19.627-19.627zM768.364 231.78H747.02h21.345zM748.737 242.45l7.512 47.582-7.512-47.582zM771.24 337.096c10.963 2.813 20.716 8.726 29.27 17.789 9.36 9.931 15.206 21.408 17.51 34.44l.451 3.096-47.232-55.325zM761.14 335.368c3.5.288 6.826.864 10.1 1.728l-10.1-1.728z"/><path d="M761.14 335.368v-39.653c0-.691.115-1.325.34-1.891l-.34 41.544zM771.24 337.096v-41.38l-.173-1.148zM761.48 293.824a5.655 5.655 0 011.143-1.67l.466-.399-1.608 2.069z"/><path d="M771.067 294.568c-.173-.922-.634-1.728-1.325-2.414-.975-.975-2.175-1.493-3.552-1.493-1.21 0-2.237.35-3.101 1.094l7.978 2.813zM812.625 575.45l6.307-111.519c2.347-30.014 3.279-54.869 2.755-74.606-.513-17.799-2.179-31.397-5.054-40.867-7.8-26.63-22.78-44.477-44.928-53.602l-.062-.058c-.178-.062-.404-.172-.576-.23l41.558 280.882zM751.44 296.229c-30.994 9.931-50.343 40.579-57.965 91.891l57.964-91.891z"/><path d="M726.475 369.232c9.59-9.58 21.172-14.347 34.665-14.347 13.54 0 25.08 4.766 34.666 14.347 5.913 5.914 10.037 12.629 12.273 20.093 1.378 4.589 2.079 9.47 2.079 14.577 0 13.541-4.771 25.08-14.352 34.661-4.421 4.421-9.303 7.863-14.64 10.22-6.087 2.75-12.74 4.132-20.026 4.132-9.763 0-18.49-2.467-26.227-7.464-2.923-1.891-5.736-4.185-8.438-6.888-9.59-9.58-14.352-21.12-14.352-34.66 0-5.108.69-9.99 2.068-14.578 2.232-7.464 6.37-14.18 12.284-20.093z"/><path d="M818.471 392.42l-.628-3.095c-2.472-9.989-7.637-18.888-15.437-26.693-11.43-11.414-25.138-17.102-41.266-17.102-16.123 0-29.856 5.688-41.265 17.102-7.81 7.805-12.917 16.704-15.39 26.693l-.911 4.416a62.488 62.488 0 00-.797 9.926l115.694-11.246zM693.475 388.12l-.178.74-.062.465a66.052 66.052 0 00-.802 5.793l1.042-6.998z"/><path d="M693.475 388.12c2.457-12.571 8.193-23.65 17.28-33.235 12.384-13.138 27.37-19.743 44.87-19.743l5.515.226-67.665 52.752zM103.588 296.229l10.9-1.032c88.791-8.323 193.187-11.535 313.08-9.759 119.895-1.776 224.175 1.436 312.97 9.759l10.901 1.032H103.59zM743.687 287.507l-6.254-1.205 6.254 1.205zM756.249 290.032l-12.562-2.525 12.562 2.525zM747.019 231.78l1.718 10.67-1.718-10.67zM743.687 287.507v-73.92c0-.864-.288-1.55-.912-2.184-.633-.629-1.324-.917-2.184-.917h-.052c-.864 0-1.546.288-2.184.917-.63.634-.922 1.32-.922 2.184v72.715l6.254 1.205zM768.364 231.78h31.743c1.492 0 2.75.513 3.787 1.554 1.037 1.028 1.545 2.29 1.545 3.788 0 1.483-.508 2.745-1.545 3.777-1.037 1.037-2.295 1.55-3.787 1.55h-31.743v-10.67z"/><path d="M768.364 242.45v16.358c0 3.85 1.9 5.736 5.74 5.736h55.791c3.85 0 5.736-1.886 5.736-5.736v-43.387c0-3.84-1.886-5.741-5.736-5.741h-55.79c-3.84 0-5.74 1.9-5.74 5.74v27.03zM726.187 76.528c0-14.4-7.575-26.227-22.786-35.582C682.684 26.31 641.47 15.179 579.83 7.605c-38.04-3.159-76.555-5.227-115.527-6.26L428.255 1l-36.73.288a2085.65 2085.65 0 00-116.337 6.317c-61.627 7.574-102.84 18.705-123.561 33.34-15.216 9.356-22.79 21.183-22.79 35.583h597.35z"/><path d="M726.187 76.528c-10.964-7.06-30.586-12.566-59.002-16.526-39.029-5.338-83.218-9.01-132.571-10.964a2113.365 2113.365 0 00-99.466-2.184h-15.096c-32.313-.11-65.549.634-99.633 2.184-49.364 1.954-93.548 5.626-132.576 10.964-28.416 3.96-48.039 9.465-59.007 16.526h597.35z"/><path d="M698.865 99.14v.116l25.315 147.557v-.058c.97 6.432.629 11.309-1.157 14.698-1.545 2.582-4.233 3.955-8.03 4.243h-.283c-77.026-4.19-153.533-6.26-229.517-6.14H369.83c-75.984-.12-152.487 1.95-229.517 6.14h-.288c-3.787-.288-6.475-1.66-8.026-4.243-1.785-3.389-2.121-8.266-1.147-14.698v.058l25.306-147.557v-.115c1.78-5.736 5.97-9.067 12.638-9.927l.159-.057c73.867-12.11 156.225-18.307 247.07-18.595h22.968c90.854.288 173.213 6.484 247.075 18.595l.168.057c6.658.86 10.848 4.19 12.629 9.927z"/><path d="M593.726 269.426l121.325 4.31c7.233-.403 12.22-3.158 15.033-8.386 2.703-4.53 3.331-11.13 2.016-19.8v-.115L706.79 97.763l-.115-.34c-2.472-9.413-8.895-14.809-19.402-16.186-74.266-12.226-157.027-18.423-248.28-18.71h-22.968c-91.243.287-174 6.484-248.27 18.71-10.503 1.377-16.93 6.773-19.402 16.185l-.11.341-25.32 147.672v.115c-1.31 8.67-.687 15.27 2.016 19.8 2.812 5.228 7.8 7.983 15.038 8.386l121.32-4.31h332.429z"/><path d="M443.692 54.837c29.453.057 59.63.801 90.571 2.237 49.076 1.953 92.976 5.568 131.832 10.91 28.402 3.955 47.52 9.408 57.39 16.464l.292.173-280.085-29.784zM723.777 84.62c.86.52 1.723.697 2.698.52 1.09-.169 1.948-.745 2.577-1.604.687-.864.922-1.896.749-2.99-.178-1.09-.749-1.95-1.598-2.583l-2.016-1.435-2.41 8.093zM427.627 357.755c-.178-.691.115-1.205.864-1.608.739-.403 1.665-.744 2.75-1.032l10.968-2.985c1.32 1.094 2.347 2.41 3.034 3.844a9.837 9.837 0 01.864 4.479c-.053 1.603-.572 3.158-1.488 4.593-.98 1.546-2.41 2.928-4.248 4.133-1.776 1.2-3.84 2.122-6.144 2.75a25.052 25.052 0 01-6.884.807c-2.347 0-4.588-.288-6.772-.917-2.175-.633-4.133-1.497-5.804-2.587l25.032-6.94.97-.745c.24-.288.283-.576.24-.984l-.466-.912-1.214-.629-1.488-.177-8.89-.173-.864-.283-.46-.634zm-6.197-9.931l6.883-.686c2.304.057 4.478.398 6.6 1.032 2.126.633 4.022 1.55 5.568 2.64l-24.504 6.542c-.864.288-1.368.749-1.66 1.44-.12.34 0 .74.292 1.205.331.456.797.739 1.31.854l10.623.35 1.027.572.283.859c-.168.576-.576.98-1.085 1.152l-13.948 4.013c-1.316-1.2-2.357-2.525-3.039-4.013-.686-1.493-.974-3.048-.801-4.594.115-1.665.686-3.216 1.66-4.65 1.09-1.546 2.578-2.924 4.474-4.134 1.896-1.147 3.965-2.006 6.317-2.582zm-8.664 1.896c-1.954 1.32-3.447 2.87-4.536 4.594-1.085 1.776-1.666 3.672-1.666 5.62 0 1.959.58 3.85 1.666 5.626 1.032 1.723 2.525 3.274 4.473 4.594 1.906 1.32 4.133 2.352 6.663 3.1a29.51 29.51 0 008.15 1.143c2.813 0 5.563-.399 8.15-1.143 2.463-.748 4.705-1.78 6.653-3.1 1.95-1.32 3.447-2.813 4.474-4.536 1.094-1.781 1.66-3.672 1.723-5.621 0-1.959-.571-3.85-1.66-5.626-1.037-1.723-2.525-3.273-4.48-4.593-1.895-1.32-4.137-2.352-6.657-3.101a29.075 29.075 0 00-8.092-1.147c-2.876 0-5.621.345-8.208 1.09-2.525.743-4.767 1.78-6.653 3.1zm163.45 98.66v-7.402 7.401zm85.007 0h-27.21 27.21zm0-.687v.686-.686zm0 0l.399.686-.399-.686zm.399.686l.974 2.3.514 1.718-1.488-4.018zm-27.61-7.401h-4.017 4.017zm27.211 6.715c-3.168-4.944-9.542-7.176-19.18-6.715h-8.03l27.21 6.715zm-27.21.686v-7.401 7.401zm-4.018 0v-7.401 7.401zm4.017 0h-4.017 4.017zM134.29 636.4H84.364c-13.2-.173-21.638-5.683-25.253-16.646H208.56L134.29 636.4zm149.573-16.646v2.294c0 7.637 3.84 11.477 11.477 11.477h264.345c7.642 0 11.477-3.84 11.477-11.477v-2.294h-287.3zm-105.835-39.087H59.11h118.916zM134.289 636.4h99.523c47.352 13.656 111.917 19.622 193.704 17.846 81.783 1.776 146.347-4.19 193.7-17.846h99.523-586.45zm74.27-16.646v3.441c0 1.55.744 2.295 2.3 2.295h20.947c1.555 0 2.294-.744 2.294-2.295v-3.441h-25.54zm-155.188 6.254V781.83c-.927 10.047 4.243 15.212 15.49 15.495h49.938c11.252-.283 16.412-5.448 15.49-15.495V636.4L53.37 626.008zm0 0c2.812-1.435 4.588-3.5 5.332-6.312.23-.864.341-1.838.408-2.87v-30.99c.063-1.838-.177-3.508-.69-4.938-.86-2.352-2.588-4.186-5.05-5.448H14.284c-9.13.513-13.545 4.358-13.257 11.53v27.498c-.288 7.167 4.128 11.012 13.257 11.53h39.087zm-13.2-198.864c-1.55-4.133-2.636-8.438-3.39-12.97a78.517 78.517 0 01-.863-11.712c0-3.441.23-6.768.638-10.041l3.615 34.723zm-3.615-34.723c-.691 3.614-1.037 7.344-1.037 11.246v.235c0 8.381 1.55 16.124 4.652 23.242l-3.615-34.723zm152.549 85.339h29.443-29.443zm29.443 4.018h-29.505 29.505zM190.2 462.213h28.35-28.35zm28.35 4.013h-28.753 28.752zm27.95 51.825v-11.02 11.02zm-37.94 62.616h-10.843 10.843zm21.864-62.616a44.692 44.692 0 00-3.268-11.02l3.268 11.02zm20.088 0v-11.02 11.02zm29.856-11.02v11.02-11.02zm-4.032 11.02v-11.02 11.02zm-64.276-28.81c-6.71-4.708-14.4-7.17-23.016-7.343l23.016 7.344zm-18.59-40.862h25.08-25.08zm25.08 4.018H191.97h26.577zm31.962 69.672H246.5h4.012zm-4.012 4.593h4.012-4.012zm37.363 54.005H234.1h49.762zm-37.363-62.616h4.012-4.012zM234.1 619.754h49.762H234.1zm49.762 0v-39.087 39.087zm-75.303 0V578.09c0-1.556.744-2.295 2.3-2.295h20.947c1.555 0 2.294.74 2.294 2.295v41.664h-25.54zm-10.843-52.743c7.738-1.785 14.578-5.625 20.54-11.597a48.605 48.605 0 004.305-4.934c4.07-5.395 6.662-11.42 7.752-18.077l-32.597 34.608zm48.783-40.349h-15.615H246.5zm0-4.593v4.593-4.593zm-15.668 0H246.5 230.83zm.053 4.593l-.053-4.593.053 4.593zm-.571 5.741l.571-5.74-.571 5.74zm.11-14.352H246.5h-16.076zm.408 4.018l-.408-4.018.408 4.018zm19.68 0h25.824-25.824zm25.824 4.593h-25.824 25.824zm0-8.61h-25.824 25.824zm-25.824 8.61v-4.593 4.593zm29.856 0h-4.032 4.032zm0-4.593v4.593-4.593zm-4.032 0h4.032-4.032zm0 4.593v-4.593 4.593zm4.032-8.61h-4.032 4.032zm-135.57 10.16c.69 10.503 4.88 19.575 12.503 27.202 6.029 6.03 12.922 9.874 20.727 11.597l-33.23-38.798zm52.92 38.8v13.655-13.656zm-19.69 0v13.655-13.656zm0 0l9.753 1.031 9.936-1.032h-19.69zm19.69 13.655h-19.69 19.69zm-71.694-56.016c0 3.85-1.886 5.746-5.736 5.746H70.588c-3.84 0-5.74-1.896-5.74-5.746v-16.416c0-3.84 1.9-5.736 5.74-5.736h49.7c3.849 0 5.735 1.896 5.735 5.736v16.416zm26.232-.057l.168-1.032-.11-.802-.058 1.834zm.058-1.834l-.058 1.834.058-1.834zm-7.234-3.845c-.283 1.949-.403 3.96-.403 6.024l.12 3.274.283-9.298zm0 0h-.686c-2.242 0-4.128.461-5.678 1.32-1.55.917-2.348 2.007-2.348 3.327 0 1.32.797 2.414 2.348 3.273 1.55.917 3.436 1.378 5.678 1.378h.403l.283-9.298zm17.799-115.248h-10.623 10.623zm26.227 74.093l-.062 4.018.062-4.018zm-5.798 4.31c-9.99.917-18.653 5.05-26.007 12.39-6.931 6.954-11.006 15.095-12.22 24.455l38.227-36.845zm5.736-.172l-1.263-.063-4.473.235 5.736-.172zm.753-15.672c-.355 3.504-.576 7.348-.691 11.534l.691-11.534zm.403-4.013l-.403 4.013.403-4.013zm1.772-9.816c-.744 2.813-1.316 6.081-1.772 9.816l1.772-9.816zm-61.632 51.254v26.17c0 3.845-1.906 5.74-5.746 5.74H66.8c-3.84 0-5.746-1.895-5.746-5.74v-26.17c0-3.85 1.906-5.745 5.746-5.745h57.792c3.84 0 5.746 1.896 5.746 5.745zM40.17 427.144c2.812 6.538 7.003 12.571 12.446 18.02 10.973 10.962 24.173 16.703 39.494 17.102h1.776c16.124 0 29.852-5.679 41.266-17.103 11.424-11.419 17.102-25.137 17.102-41.26v-.236L40.171 427.144zm122.707-23.477l-.063-5.217c-.057-1.148-.11-2.237-.225-3.332l.288 8.55zm30.59 44.712l-1.041 2.3-.456 1.718 1.497-4.018zm53.03 54.643h4.013-4.012zm0-9.763h4.013-4.012zm4.013 13.771H246.5h4.012zm-4.012-25.252h4.012-4.012zm4.012 7.464H246.5h4.012zm-4.012-23.016h4.012-4.012zm4.012 11.534H246.5h4.012zm0-15.547H246.5h4.012zm0-21.235H246.5h4.012zm-4.012 7.401h4.012-4.012zm0 4.018h4.012-4.012zm4.012 25.363h25.824-25.824zm25.824-11.534h-25.824 25.824zm0 23.016h-25.824 25.824zm0-27.03h-25.824 25.824zm0 19.566h-25.824 25.824zm-25.824 11.481h25.824-25.824zm25.824 9.763h-25.824 25.824zm0 4.008h-25.824 25.824zm0-54.633h-25.824 25.824zm4.032 40.862v9.763-9.763zm-4.032 0v9.763-9.763zm4.032 9.763h-4.032 4.032zm0 4.008h-4.032 4.032zm0-25.252v7.464-7.464zm0 7.464h-4.032 4.032zm-4.032 0v-7.464 7.464zm0 4.017h4.032-4.032zm4.032-11.481h-4.032 4.032zm-29.856 21.244v-9.763 9.763zm0-21.244v7.464-7.464zm0-15.552v11.534-11.534zm0-13.83v9.817-9.816zm29.856 25.364h-4.032 4.032zm-4.032 0v-11.534 11.534zm0-11.534h4.032-4.032zm4.032 11.534v-11.534 11.534zm-4.032-25.363h4.032-4.032zm4.032 0v9.816-9.816zm0 9.816h-4.032 4.032zm-4.032 0v-9.816 9.816zM246.5 481.778H222.56h23.938zm-23.938-4.018h23.938-23.938zm23.938-11.534H222.56h23.938zm0 23.016H222.56h23.938zm0-27.03H222.56h23.938zm-19.344 44.818l-2.122-4.008 2.122 4.008zm-4.594-13.77h23.938-23.938zm23.938 9.762h-21.466 21.466zm0-50.625H222.56h23.938zm0 54.633h-19.344 19.344zm0-17.788v-7.464 7.464zm0 4.017v9.763-9.763zm-34.44-4.017c1.728 1.21 3.384 2.524 4.939 4.017l-4.94-4.017zm6.49 0h-6.49 6.49zm0 5.51l-1.551-1.493 1.55 1.493zm0-1.493v1.493-1.493zm4.012 0v6.144-6.144zm2.472 9.763l-2.472-3.619 2.472 3.62zm-72.778 21.572v.403c0 9.816 3.447 18.134 10.388 25.08 6.95 6.945 15.326 10.392 25.137 10.392 9.816 0 18.14-3.447 25.085-10.392a39.014 39.014 0 005.683-7.171c1.882-3.274 3.274-6.716 4.013-10.392l.173-.744.57-6.773-.743-7.522c-.74-3.725-2.131-7.166-4.013-10.382v-.063l-2.813-4.008-2.87-3.163c-2.76-2.755-5.746-4.934-8.894-6.6-4.877-2.525-10.277-3.787-16.19-3.787-9.812 0-18.188 3.446-25.138 10.387-6.365 6.375-9.816 14.002-10.33 22.901l-.058 1.834zm70.306-25.19l-4.013-4.652 4.013 4.651zm-5.563-6.145h1.55-1.55zm5.563-11.481v7.464-7.464zm0 7.464h-4.013 4.013zm-4.013 0v-7.464 7.464zm0-7.464h4.013-4.013zm0 11.481h4.013-4.013zm4.013-15.499h-4.013 4.013zm-4.013 0v-11.534 11.534zm0-11.534h4.013-4.013zm4.013 0v11.534-11.534zm-4.013-13.83h4.013-4.013zm4.013 0v9.817-9.816zm0 9.817h-4.013 4.013zm-4.013 0v-9.816 9.816zm27.95 0v-9.816 9.816zm0 15.547v-11.534 11.534zm-23.937-29.38h23.938-23.938zm23.938-7.402H222.56h23.938zm0 7.401v-7.401 7.401zm-23.938 0v-7.401 7.401zm0-7.401h-4.013 4.013zm-4.013 7.401v-7.401 7.401zm0-7.401h-5.563c-10.056-.461-16.589 2.006-19.517 7.401l25.08-7.401zm0 7.401h4.013-4.013zm31.963 0h25.824-25.824zm25.824-7.401h-25.824 25.824zm0 7.401h4.032-4.032zm4.032 0v-7.401 7.401zm0-7.401h-4.032 4.032zm-4.032 0v7.401-7.401zm-25.824 7.401v-7.401 7.401zm-88.953-60.259c-7.642-51.312-26.981-81.96-57.97-91.891l57.97 91.891zM111.34 287.507l-12.576 2.525 12.576-2.525zm-3.331-55.728l23.237-147.158-23.237 147.158zm153.288 37.647c-51.59 2.87-99.514 8.496-143.707 16.876l143.707-16.876zM162.59 395.118c-.168-2.006-.461-3.902-.807-5.793l-.057-.466-.168-.739 1.032 6.998zm-45-108.816l-6.25 1.205 6.25-1.205zm0 0v-72.715c0-.864-.288-1.55-.917-2.184-.634-.629-1.32-.917-2.184-.917h-.053c-.86 0-1.55.288-2.184.917-.629.634-.912 1.32-.912 2.184v73.92l6.25-1.205zm-18.826 3.73l7.522-47.582-7.522 47.582zm-39.547 79.2c-9.586 9.586-14.342 21.178-14.342 34.67 0 13.541 4.756 25.08 14.342 34.661 4.426 4.421 9.302 7.863 14.64 10.22 5.563 2.529 11.654 3.902 18.254 4.132h1.776c9.764 0 18.49-2.467 26.228-7.464 2.923-1.891 5.736-4.185 8.438-6.888 9.586-9.58 14.352-21.12 14.352-34.66 0-5.108-.691-9.99-2.069-14.578-2.227-7.464-6.374-14.18-12.283-20.093-9.586-9.58-21.178-14.347-34.666-14.347-13.536 0-25.075 4.766-34.67 14.347zm93.038 34.435c0-3.379-.288-6.71-.801-9.926l-.912-4.416c-2.477-9.989-7.575-18.888-15.39-26.693-11.413-11.414-25.141-17.102-41.265-17.102-16.123 0-29.841 5.688-41.27 17.102-8.597 8.606-13.94 18.542-16.06 29.789l115.698 11.246zM36.556 392.421c1.887-14.29 7.858-26.803 17.967-37.536 8.548-9.063 18.297-14.976 29.265-17.789l-47.232 55.325zm57.331-57.053c-3.499.288-6.83.864-10.099 1.728l10.1-1.728zm67.67 52.752c-2.466-12.571-8.202-23.65-17.28-33.235-12.398-13.138-27.374-19.743-44.874-19.743l-5.516.226 67.67 52.752zm-77.769-51.024v-41.38c0-.289.058-.577.106-.807 0-.11 0-.23.067-.341l-.173 42.528zm.173-42.528c-.173.058-.398.168-.571.23v.058c-22.22 9.125-37.19 26.966-44.99 53.602-6.04 19.915-6.84 58.43-2.31 115.473l6.322 111.519 41.549-280.882zm7.978-2.813c-.864-.744-1.896-1.094-3.106-1.094-1.368 0-2.578.518-3.547 1.493-.696.686-1.147 1.492-1.325 2.414l7.978-2.813zm6.825-1.723l-6.825 1.723 6.825-1.723zm-5.213 3.792l.336 1.891v39.653l-.336-41.544zm-1.612-2.069l.46.399c.514.518.86 1.036 1.152 1.67l-1.612-2.069zm11.65 4.474a72.434 72.434 0 00-10.038-2.405l10.037 2.405zm4.42-64.45h-21.35 21.35zm-21.35 10.67h19.627-19.627zm19.627 0l1.723-10.67-1.723 10.67zm-19.627-10.67H54.92c-1.498 0-2.76.514-3.787 1.555-1.037 1.028-1.55 2.29-1.55 3.788 0 1.483.513 2.745 1.55 3.777 1.027 1.037 2.29 1.55 3.787 1.55h31.738v-10.67zm0 0v-16.358c0-3.84-1.901-5.741-5.736-5.741h-55.79c-3.855 0-5.737 1.9-5.737 5.74v43.388c0 3.85 1.882 5.736 5.736 5.736h55.79c3.836 0 5.737-1.886 5.737-5.736V231.78zm42.177-155.251l-2.011 1.435c-.845.634-1.42 1.493-1.603 2.583-.173 1.094.062 2.126.758 2.99.624.86 1.483 1.435 2.573 1.603.97.178 1.834 0 2.693-.518l-2.41-8.093zM542.697 522.069h4.013m-4.013 4.593v-4.593m4.013-4.018h-4.013m29.506 8.611v-4.593m-55.33-59.856h25.824m-25.824 31.046h25.824m-25.824 9.763h25.824m0-13.78h-25.824m0-23.016h25.824m0-25.248h-25.824m0 36.782h25.824m0 4.018h-25.824m25.824 25.252h-25.824m25.824-58.65h-25.824m25.824 4.017h-25.824m29.837 40.862h25.493m0-4.017H546.71m25.493-27.03H546.71m0 4.014h25.493m-25.493 36.796h25.493M546.71 477.76h25.493m0 4.018H546.71m25.493 25.252H546.71m25.493-54.633H546.71m25.493 50.625v-9.763m0-11.481v7.464m-29.506 13.78v-9.763m4.013 0v9.763m-4.013 0h4.013m0 4.008h-4.013m4.013-17.788h-4.013m4.013 0v-7.464m-4.013 11.481h4.013m-4.013-11.481v7.464m4.013-7.464h-4.013m0-4.018h4.013m0-11.534h-4.013m4.013 11.534v-11.534m-4.013 0v11.534m4.013-25.363h-4.013m4.013 9.816h-4.013m0 0v-9.816m4.013 9.816v-9.816m25.493 25.363v-11.534m0-4.013v-9.816m-59.343 13.829h-23.937m0 27.033h23.937m-23.937 9.763h23.937m0-13.78h-23.937m23.937-27.03h-23.937m0 15.548h23.937m0 4.018h-23.937m23.937 25.252h-23.937m23.937-54.633h-23.937m27.95 36.845h-4.013m0 13.78v-9.763m0 0h4.013m0 0v9.763m-4.013 0h4.013m0-21.244h-4.013m4.013 25.252h-4.013m0-25.252v7.464m4.013 0v-7.464m-27.95 11.481v9.763m-4.013 0v-9.763m4.013 9.763h-4.013m4.013 4.008h-4.013m4.013-17.788h-4.013m0 0v-7.464m4.013 7.464v-7.464m-4.013 11.481h4.013m0-11.481h-4.013m0-4.018h4.013m0-11.534v11.534m-4.013-11.534h4.013m-4.013 11.534v-11.534m4.013-13.83h-4.013m4.013 9.817v-9.816m-4.013 9.816v-9.816m4.013 9.816h-4.013m31.963-9.816h-4.013m4.013 9.816h-4.013m0 4.013h4.013m-4.013 11.534h4.013m0 0v-11.534m-4.013 11.534v-11.534m0-4.013v-9.816m4.013 0v9.816m-4.013-21.235h-23.937m0 7.401h23.937m4.013-7.401h-4.013m4.013 7.401v-7.401m-4.013 7.401v-7.401m4.013 7.401h-4.013m-27.95 0v-7.401m4.013 0h-4.013m4.013 0v7.401m0 0h-4.013m61.8 0h25.493m0-7.401H546.71m25.493 7.401v-7.401m-25.493 7.401h-4.013m4.013-7.401h-4.013m0 7.401v-7.401m4.013 0v7.401m83.285 17.847H604.17m0 27.033h25.824m0 9.763H604.17m25.824-13.78H604.17m25.824-27.03H604.17m25.824-21.234H604.17m0 36.782h25.824m0 4.018H604.17m23.76 25.252h-23.76m25.824-54.633H604.17m0-4.018h25.824m4.017 17.847h27.211m-27.21-4.013h27.21m-27.21 15.547h27.21m4.7 0l.057 4.018m-4.757 0h-27.21m8.956 7.464c5.453-3.845 11.525-6.144 18.254-6.999m0-29.846h-27.21m31.967 29.38h-4.757m0 .466l4.008-.288m0 0l.75-.057m-31.969 7.344h-4.017m0 13.78v-9.763m0 0h4.017m0 4.19v-4.19m0 4.19l4.018-4.19m-7.978 9.763a44.417 44.417 0 013.96-5.572m0-15.672h-4.017m-2.064 25.252l2.064-3.955.057-.053m-.057-21.244v7.464m8.035 4.017c1.55-1.493 3.216-2.808 4.939-4.017m-8.957 0v-7.464m8.957 7.464h-8.957m0 4.017h4.018m-4.018-40.862h-4.017m0 25.363h4.017m-4.017-15.547h4.017m-4.017 4.013h4.017m0 11.534v-11.534m-4.017 11.534v-11.534m0-13.83v9.817m4.017 0v-9.816m27.211 25.363v-11.534m0 0h4.008m0 0v11.534m0 0h.692m-4.7 0h4.008m.063-11.534l-.063-.284-.398-3.73m1.09 15.548l-.63-11.534m-.46-4.013c-.46-3.735-1.037-7.003-1.723-9.816m-1.887 9.816h3.61m-3.61 0v-9.816m1.887 0h-1.887m-85.008 40.862h23.938m0 9.763h-23.938m23.938-13.78h-23.938m23.938-27.03h-23.938m0 4.014h23.938m-23.938 11.534h23.938m0 4.018h-23.938m23.938 25.252h-23.938m23.938-54.633h-23.938m27.956 40.862v9.763m-4.018-9.763v9.763m4.018 0h-4.018m4.018 4.008h-4.018m4.018-17.788h-4.018m4.018 0v-7.464m-4.018 11.481h4.018m-4.018-11.481v7.464m4.018-7.464h-4.018m-23.938 21.244v-9.763m0-4.017v-7.464m0-19.565v-9.816m0 25.363v-11.534m23.938 11.534v-11.534m0 0h4.018m0 0v11.534m-4.018 0h4.018m0-25.363h-4.018m4.018 9.816h-4.018m0 0v-9.816m4.018 9.816v-9.816m-4.018-4.018h-23.938m23.938-7.401h-23.938m27.956 7.401h-4.018m4.018-7.401h-4.018m0 7.401v-7.401m4.018 0v7.401M337.809 489.242h-4.018m4.018 0v-7.464m-4.018 11.481h4.018m-4.018-11.481v7.464m4.018-7.464h-4.018m-27.955 21.244v-9.763m0 0h4.013m0 0v9.763m-4.013 0h4.013m0-13.78h-4.013m4.013-7.464h-4.013m4.013 25.252h-4.013m0-17.788v-7.464m4.013 7.464v-7.464m0-29.381h-4.013m0 25.363h4.013m0-15.547h-4.013m4.013 4.013h-4.013m4.013 11.534v-11.534m-4.013 0v11.534m0-15.547v-9.816m4.013 0v9.816m23.942 15.547v-11.534m0 0h4.018m0 11.534v-11.534m-4.018 11.534h4.018m0-25.363h-4.018m4.018 0v9.816m0 0h-4.018m0 0v-9.816m-23.942-11.42h23.942m0 7.402H309.85m23.942-7.401v7.401m4.018-7.401h-4.018m4.018 7.401v-7.401m-4.018 7.401h4.018m-31.973-7.401v7.401m0-7.401h4.013m0 7.401v-7.401m-4.013 7.401h4.013m53.78 0v-7.401m4.026 7.401v-7.401m0 0h-4.027m4.027 7.401h-4.027m89.026 17.847h-25.83m0 36.796h25.83m-25.83-9.763h25.83m0-4.017h-25.83m25.83-27.03h-25.83m25.83-21.234h-25.83m0 36.782h25.83m0 4.018h-25.83m25.83 25.252h-25.83m0-58.65h25.83m0 4.017h-25.83m29.843 40.862v9.763m-4.013 0v-9.763m4.013 9.763h-4.013m4.013 4.008h-4.013m4.013-17.788h-4.013m4.013 0v-7.464m-4.013 11.481h4.013m-4.013-11.481v7.464m4.013-7.464h-4.013m0-4.018v-11.534m0 0h4.013m0 11.534v-11.534m-4.013 11.534h4.013m0-25.363h-4.013m4.013 9.816v-9.816m-4.013 9.816h4.013m-4.013-9.816v9.816m-53.78 0h23.929m-23.928 40.81h23.928m-23.928-9.764h23.928m0-4.017h-23.928m0-23.016h23.928m-23.928 11.534h23.928m0 4.018h-23.928m23.928 25.252h-23.928m23.928-54.633h-23.928m27.95 40.862v9.763m-4.022 0v-9.763m4.022 9.763h-4.022m4.022 4.008h-4.022m4.022-17.788h-4.022m0 0v-7.464m4.022 7.464v-7.464m-4.022 11.481h4.022m0-11.481h-4.022m-23.928 11.481v9.763m-4.023 0v-9.763m4.023 9.763h-4.023m4.023 4.008h-4.023m4.023-25.252v7.464m0 0h-4.023m0 0v-7.464m0 11.481h4.023m0-11.481h-4.023m0-4.018h4.023m0 0v-11.534m-4.023 0h4.023m-4.023 11.534v-11.534m4.023-13.83h-4.023m0 9.817v-9.816m4.023 9.816h-4.023m4.023-9.816v9.816m23.928 15.547v-11.534m0 0h4.022m0 0v11.534m-4.022 0h4.022m0-25.363h-4.022m4.022 9.816h-4.022m0 0v-9.816m4.022 9.816v-9.816m-4.022-11.42h-23.928m23.928 7.402h-23.928m27.95-7.401h-4.022m0 7.401v-7.401m4.022 0v7.401m0 0h-4.022m-27.95 0v-7.401m4.022 0h-4.023m4.023 7.401v-7.401m0 7.401h-4.023m57.802 0v-7.401m4.013 7.401v-7.401m0 0h-4.013m4.013 7.401h-4.013m123.561 69.672h-4.012m4.012-28.81h-4.012m48.73 91.426H571.16m5.054-62.616v-11.02m27.956 0v11.02m-4.018 0v-11.02m-111.23 0v11.02m-4.013 0v-11.02m31.963 0v11.02m-4.013 0v-11.02m59.343 0v11.02m-25.493-11.02v11.02m-4.013 0v-11.02m29.506 15.038h4.012m0 4.593h-4.012m0-33.403h4.012m0-31.046h-4.012m0 4.013h4.012m-4.012 36.796h4.012m-4.012-25.262h4.012m0 4.018h-4.012m4.012 25.252h-4.012m-1.042 112.724h49.771m3.72-101.703a40.942 40.942 0 013.279-11.02m-51.716-66.053h-4.012m4.012 11.419h-4.012m4.012-4.018h-4.012m31.968 73.69h20.083m-.11 4.593H604.17m20.481-8.61h-20.481m16.761 62.615v39.087m25.536-39.087v39.087m0-39.087v-2.577c0-1.556-.749-2.295-2.294-2.295h-20.952c-1.55 0-2.29.74-2.29 2.295v2.577m36.38 0h-10.844m10.843-13.656v13.656m-81.096-58.598h23.938m0 4.593h-23.938m23.938-8.61h-23.938m0 4.017v4.593m27.956 0h-4.018m4.018-4.593v4.593m-4.018-4.593h4.018m-4.018 4.593v-4.593m4.018-4.018h-4.018m57.158 48.96c-7.742-1.785-14.577-5.625-20.539-11.597-2.707-2.697-4.94-5.505-6.777-8.548-2.703-4.474-4.412-9.303-5.276-14.463m-.465-10.334c.062-1.373.173-2.693.398-4.018m-.509 8.611l.11-4.593m.466 10.334c-.292-1.896-.523-3.787-.576-5.74m-107.27-4.594h25.824m0-4.018h-25.824m0 8.611h25.824m-258.835 54.005c.163-7.286 4.013-10.963 11.477-10.963h264.345c7.464 0 11.309 3.677 11.477 10.963m0 0v39.087m-82.238-97.685h23.937m0-4.018h-23.937m0 8.611h23.937m-23.937-8.61h-4.013m4.013 4.017v4.593m-4.013-4.593h4.013m-4.013 4.593v-4.593m0 4.593h4.013m23.937 0h4.013m0-4.593v4.593m-4.013-4.593h4.013m-4.013 4.593v-4.593m4.013-4.018h-4.013m33.85 8.611h25.493m-25.493-4.593h25.493m0-4.018H546.71m-4.013 8.611h4.013m0-4.593v4.593M676.996 580.667h-19.685M692.15 403.667H162.878M737.433 286.302c-44.198-8.38-92.117-14.006-143.707-16.876M692.433 395.118H162.59M280.367 462.213h25.469M280.367 493.259h25.469M280.367 522.069h25.469M305.836 518.051h-25.469M305.836 489.242h-25.469M280.367 503.022h25.469M280.367 526.662h25.469M624.719 532.403H230.313M305.836 481.778h-25.469M280.367 466.226h25.469M305.836 477.76h-25.469M305.836 507.03h-25.469M280.367 440.978h25.469M305.836 448.379h-25.469M305.836 452.397h-25.469M456.667 503.022h28.243M456.667 493.259h28.243M456.667 522.069h28.243M484.91 518.051h-28.243M484.91 489.242h-28.243M456.667 462.213h28.243M456.667 466.226h28.243M456.667 526.662h28.243M456.667 477.76h28.243M484.91 481.778h-28.243M484.91 507.03h-28.243M484.91 440.978h-28.243M484.91 448.379h-28.243M484.91 452.397h-28.243M620.932 619.754v3.441c0 1.55.74 2.295 2.29 2.295h20.952c1.545 0 2.294-.744 2.294-2.295v-3.441M367.655 522.069h27.197M367.655 493.259h27.197M394.852 518.051h-27.197M398.875 507.03v11.021M394.852 518.051V507.03M426.825 507.03v11.021M422.803 518.051V507.03M456.667 507.03v11.021M452.654 518.051V507.03M309.849 507.03v11.021M305.836 518.051V507.03M337.809 507.03v11.021M333.791 518.051V507.03M367.655 507.03v11.021M363.628 518.051V507.03M394.852 489.242h-27.197M394.852 462.213h-27.197M367.655 466.226h27.197M367.655 503.022h27.197M367.655 526.662h27.197M367.655 477.76h27.197M394.852 481.778h-27.197M394.852 507.03h-27.197M394.852 440.978h-27.197M394.852 448.379h-27.197M394.852 452.397h-27.197M426.825 522.069h25.829M452.654 518.051h-25.829M426.825 526.662h25.829M398.875 522.069h23.928M422.803 518.051h-23.928M398.875 526.662h23.928M398.875 518.051h-4.023M398.875 522.069v4.593M394.852 522.069h4.023M394.852 526.662v-4.593M394.852 526.662h4.023M422.803 526.662h4.022M426.825 522.069v4.593M422.803 522.069h4.022M422.803 526.662v-4.593M426.825 518.051h-4.022M452.654 526.662v-4.593M452.654 522.069h4.013M456.667 522.069v4.593M456.667 518.051h-4.013M452.654 526.662h4.013M337.809 522.069h25.819M363.628 518.051h-25.819M337.809 526.662h25.819M309.849 522.069h23.942M333.791 518.051h-23.942M309.849 526.662h23.942M309.849 518.051h-4.013M309.849 522.069v4.593M305.836 522.069h4.013M305.836 526.662v-4.593M305.836 526.662h4.013M333.791 526.662h4.018M337.809 522.069v4.593M333.791 522.069h4.018M333.791 526.662v-4.593M337.809 518.051h-4.018M367.655 522.069v4.593M363.628 526.662v-4.593M363.628 522.069h4.027M367.655 518.051h-4.027M363.628 526.662h4.027M337.809 462.213h25.819M337.809 493.259h25.819M363.628 489.242h-25.819M337.809 503.022h25.819M337.809 466.226h25.819M363.628 440.978h-25.819M337.809 477.76h25.819M363.628 481.778h-25.819M363.628 507.03h-25.819M363.628 448.379h-25.819M363.628 452.397h-25.819M367.655 466.226h-4.027M367.655 489.242h-4.027M363.628 493.259h4.027M367.655 462.213h-4.027M363.628 503.022h4.027M363.628 477.76h4.027M367.655 481.778h-4.027M367.655 507.03h-4.027M367.655 452.397h-4.027M367.655 493.259v9.763M367.655 489.242v-7.464M363.628 481.778v7.464M363.628 503.022v-9.763M363.628 466.226v11.534M363.628 462.213v-9.816M367.655 477.76v-11.534M367.655 462.213v-9.816M309.849 462.213h23.942M309.849 493.259h23.942M309.849 503.022h23.942M333.791 489.242h-23.942M309.849 466.226h23.942M309.849 477.76h23.942M333.791 481.778h-23.942M333.791 507.03h-23.942M333.791 452.397h-23.942M333.791 503.022v-9.763M337.809 493.259v9.763M333.791 503.022h4.018M337.809 507.03h-4.018"/></g></svg>