<svg xmlns="http://www.w3.org/2000/svg" viewBox="0 0 750 688">
<g fill="none">
<path fill="#F5E3B4" d="M245.5,687.514151 C321.534121,687.514151 381.459318,667.517912 425.275591,627.525434 C469.091864,587.532957 491,529.15684 491,452.397085 C491,421.435166 486.972769,392.408368 478.918307,365.31669 C470.863845,338.225011 458.621063,314.519793 442.189961,294.201034 C425.758858,273.882275 404.495079,257.756276 378.398622,245.823037 C352.302165,233.889797 321.534121,227.923178 286.094488,227.923178 C265.475066,227.923178 245.661089,230.180818 226.652559,234.696097 C207.644029,239.211377 190.729659,246.629337 175.909449,256.949976 L186.541339,147.615702 L451.372047,147.615702 L451.372047,1.51415094 L49.2933071,1.51415094 L14.4980315,399.181288 L165.277559,399.181288 C184.608268,375.959849 210.382546,364.34913 242.600394,364.34913 C269.663386,364.34913 289.155184,371.928349 301.075787,387.086788 C312.996391,402.245228 318.956693,424.015326 318.956693,452.397085 C318.956693,512.385801 294.471129,542.380159 245.5,542.380159 C203.616798,542.380159 179.775591,518.513681 173.976378,470.780724 L0,470.780724 C3.86614173,541.090079 27.5462598,594.789656 71.0403543,631.879454 C114.534449,668.969252 172.687664,687.514151 245.5,687.514151 Z" opacity=".753" style="mix-blend-mode:overlay"/>
<path fill="#BA0E37" d="M537.450199,669.514151 C564.501992,568.825294 595.257304,475.236293 629.716135,388.747147 C664.174967,302.258 704.269588,216.414296 750,131.216032 L750,0.514150943 L265,0.514150943 L265,146.906974 L556.772908,146.906974 C538.73838,181.760809 520.381806,223.836872 501.703187,263.854238 C483.024568,303.871604 464.829017,345.825294 447.116534,389.715309 C429.40405,433.605323 412.335657,478.947581 395.911355,525.742081 C379.487052,572.536582 364.511952,620.460605 350.986056,669.514151 L537.450199,669.514151 Z" opacity=".751" style="mix-blend-mode:multiply"/>
</g>
</svg>
