<svg width="220" height="27" xmlns="http://www.w3.org/2000/svg"><path d="M219.912.243c-.35 2.37-1.053 4.65-1.755 6.844-4.825.263-9.651-.263-14.389.526a117.554 117.554 0 00-1.228 5.353c1.316 0 2.632.087 3.948.175.79 2.808-3.246 1.492-4.738 2.369-1.316 1.93-1.492 4.3-2.018 6.58 2.369-.701 4.562-1.667 6.931-2.28-.087.438-.438 1.403-.614 1.842-4.826 2.457-10.265 4.124-15.705 3.86-.351-1.579-.44-3.246-.44-4.913-5.965 2.018-11.932 4.475-18.161 5.44-1.492.35-2.896-.088-4.212-.351 0-2.018.175-3.948.439-5.879-1.843 1.843-3.51 3.86-5.528 5.528-2.895 1.228-6.054.614-9.125.614.175-1.842.526-3.685.79-5.528-5.44 2.194-10.792 4.826-16.583 5.791-1.93.615-3.335-.877-4.563-2.105-3.422.965-6.844 2.28-10.441 2.105-2.281-2.28.526-5.615.614-8.423-2.544 0-5.001-.175-7.458 0-1.93.614-1.755 2.983-2.72 4.475-1.491 3.334-5.527 3.948-8.774 3.948-3.773-.087-7.546.264-11.23-.175-1.668-.79-1.492-2.72-1.755-4.3-5.353 1.93-10.53 5.353-16.32 4.563l-2.37-1.842c-3.86 1.228-7.808 2.369-11.844 1.842-.176-2.369.35-4.65.965-6.931-5.265.175-10.354 2.28-15.618 1.754-.088-1.228-.175-2.544-.263-3.772-3.159 1.842-3.247 5.79-4.65 8.861-2.896.088-5.88.088-8.862-.087.702-2.72 1.579-5.353 2.193-8.16-7.02 3.685-13.863 9.388-22.198 8.423-1.755.088-2.896-1.404-2.545-3.071 1.14-5.177 3.334-10.09 4.563-15.18-4.738-.175-9.476.176-14.126-.35C.912 5.508 1.7 3.226 2.315.945 63.734.331 125.24 1.121 186.658.506c11.056-.614 22.199-.263 33.254-.263zM188.413 7.79c-27.638-.088-55.189 0-82.827.088-1.492 5.352-3.685 10.44-4.563 15.88.527-.175 1.58-.35 2.106-.438 2.72-2.632 2.457-6.58 1.492-10.003 3.422 0 6.844 0 10.266-.175.438.877.965 1.755 1.403 2.632 2.37-.088 4.738.176 7.02-.263 1.754-.877 3.246-2.457 5.352-2.281 5.527 0 11.055-.088 16.583 0-.79 3.158-2.018 6.23-2.545 9.564 3.949-1.141 7.722-2.896 11.319-4.914 1.93-.877 2.193-3.07 3.07-4.738 3.072-.088 6.143-.088 9.214 0-.615 2.194-1.229 4.475-1.667 6.756 2.28-2.018 4.123-4.475 6.405-6.493 2.807-.438 5.703-.088 8.598-.088-.79 3.071-1.93 6.055-2.632 9.126 4.387-.79 8.423-2.545 12.547-4.124 1.228-.439 2.018-1.492 2.544-2.633-1.228-.263-2.369-.526-3.597-.701a13.09 13.09 0 00.176-1.843c1.228-.175 2.544-.351 3.772-.702 1.053-1.14 1.229-2.983 1.93-4.475-2.017-.263-3.948-.263-5.966-.175zm-163.987.263c-1.404 4.826-3.334 9.476-4.387 14.39 6.317-1.141 11.318-5.791 16.67-9.126a34.877 34.877 0 016.055 0c1.491.264 3.07 1.404 4.65.527 2.632-.965 5.44-.527 8.16-.614-.176 1.491-.351 2.983-.439 4.562 2.895-.526 6.405-.175 8.335-2.807 1.141-1.404 2.984-1.755 4.65-1.755 5.704 0 11.407-.088 17.198.087-.878 3.16-2.106 6.318-2.72 9.564a44.836 44.836 0 009.827-4.387c1.58-3.334 2.281-7.02 3.422-10.529-23.866-.175-47.643-.175-71.421.088zm111.167 7.721c-3.773-.614-3.422 4.212-4.211 6.756.877-.263 1.842-.614 2.72-.877.526-2.018 1.053-3.948 1.491-5.879zm-60.453-.175c-.965.087-1.843.175-2.808.263a76.794 76.794 0 01-1.842 6.405c.702 0 2.105-.175 2.807-.175.878-2.106 1.58-4.212 1.843-6.493z" fill="#FFF" fill-rule="evenodd"/></svg>