<svg width="80" height="80" xmlns="http://www.w3.org/2000/svg"><path d="M40.23 79.772C16.696 79.943.513 63.076.228 39.77.057 17.091 17.835.51 40.23.338 63.194.224 79.49 17.888 79.662 40.454c.114 22.28-17.437 39.204-39.432 39.318zm0-2.85c20.913.172 36.241-15.897 36.583-36.582.285-21.084-15.557-36.982-36.583-37.153C19.26 3.073 3.077 18.8 3.077 39.77c0 21.938 15.328 37.039 37.153 37.153zM23.819 70.77c13.22-8.32 24.73-15.556 34.645-21.654 5.015-3.077 9.288-9.971 1.938-13.333-3.875-1.824-8.092-1.482-12.138-.741-1.823.342-8.89 1.88-9.06-1.31-.114-1.596 1.652-3.648 5.243-6.27 2.734-1.936 9.06-6.21 19.032-12.763 6.895 7.636 10.37 15.955 10.485 24.958.114 18.748-15.5 34.532-34.19 34.532-5.129 0-10.428-1.14-15.955-3.42zM55.615 9.114c-12.251 7.863-23.819 15.043-34.646 21.653-5.071 3.134-9.288 10.029-1.937 13.334 3.875 1.824 8.092 1.538 12.194.74 1.767-.284 8.89-1.823 9.118 1.311.057 2.28-8.035 8.662-24.275 19.033C9.117 57.777 5.641 49.457 5.584 40.226 5.242 21.365 20.8 5.751 39.66 5.581c4.9 0 10.257 1.196 15.955 3.533z" fill="#FFF" fill-rule="evenodd"/></svg>